<mxfile host="app.diagrams.net" modified="2024-06-05T04:11:18.976Z" agent="Mozilla/5.0 (X11; Linux x86_64) AppleWebKit/537.36 (KHTML, like Gecko) Chrome/125.0.0.0 Safari/537.36" etag="l5PlE9lOI16W9z24bmsg" version="24.4.13" type="google">
  <diagram name="gerenciar-usuarios-gestao" id="2YBvvXClWsGukQMizWep">
    <mxGraphModel grid="0" page="1" gridSize="10" guides="1" tooltips="1" connect="1" arrows="1" fold="1" pageScale="1" pageWidth="4000" pageHeight="4000" math="0" shadow="0">
      <root>
        <mxCell id="0" />
        <mxCell id="1" parent="0" />
        <mxCell id="DEF2TjY6wk-Xqv_Ql5yI-1" value="Administrador : Actor2" style="shape=umlActor;verticalLabelPosition=bottom;verticalAlign=top;html=1;" vertex="1" parent="1">
          <mxGeometry x="3130" y="114.5" width="30" height="60" as="geometry" />
        </mxCell>
        <mxCell id="DEF2TjY6wk-Xqv_Ql5yI-2" value="" style="html=1;points=[[0,0,0,0,5],[0,1,0,0,-5],[1,0,0,0,5],[1,1,0,0,-5]];perimeter=orthogonalPerimeter;outlineConnect=0;targetShapes=umlLifeline;portConstraint=eastwest;newEdgeStyle={&quot;curved&quot;:0,&quot;rounded&quot;:0};" vertex="1" parent="1">
          <mxGeometry x="3387" y="239.5" width="10" height="180" as="geometry" />
        </mxCell>
        <mxCell id="DEF2TjY6wk-Xqv_Ql5yI-3" value="1 : Gerenciar UsuÃ¡rios()" style="html=1;verticalAlign=bottom;endArrow=block;curved=0;rounded=0;entryX=0;entryY=0;entryDx=0;entryDy=5;" edge="1" parent="1" source="DEF2TjY6wk-Xqv_Ql5yI-5" target="DEF2TjY6wk-Xqv_Ql5yI-2">
          <mxGeometry x="0.0006" relative="1" as="geometry">
            <mxPoint x="3178" y="239.5" as="sourcePoint" />
            <mxPoint as="offset" />
          </mxGeometry>
        </mxCell>
        <mxCell id="DEF2TjY6wk-Xqv_Ql5yI-4" value="" style="html=1;verticalAlign=bottom;endArrow=open;dashed=1;endSize=8;curved=0;rounded=0;exitX=0;exitY=1;exitDx=0;exitDy=-5;exitPerimeter=0;entryX=1;entryY=1;entryDx=0;entryDy=-5;entryPerimeter=0;" edge="1" parent="1" source="DEF2TjY6wk-Xqv_Ql5yI-22">
          <mxGeometry x="-0.002" relative="1" as="geometry">
            <mxPoint x="3397" y="370.4999999999999" as="targetPoint" />
            <mxPoint as="offset" />
          </mxGeometry>
        </mxCell>
        <mxCell id="DEF2TjY6wk-Xqv_Ql5yI-5" value="" style="html=1;points=[[0,0,0,0,5],[0,1,0,0,-5],[1,0,0,0,5],[1,1,0,0,-5]];perimeter=orthogonalPerimeter;outlineConnect=0;targetShapes=umlLifeline;portConstraint=eastwest;newEdgeStyle={&quot;curved&quot;:0,&quot;rounded&quot;:0};" vertex="1" parent="1">
          <mxGeometry x="3140" y="240.5" width="10" height="180" as="geometry" />
        </mxCell>
        <mxCell id="DEF2TjY6wk-Xqv_Ql5yI-20" value="" style="group" vertex="1" connectable="0" parent="1">
          <mxGeometry x="3327.5" y="114.5" width="129" height="86" as="geometry" />
        </mxCell>
        <mxCell id="DEF2TjY6wk-Xqv_Ql5yI-16" value="" style="group" vertex="1" connectable="0" parent="DEF2TjY6wk-Xqv_Ql5yI-20">
          <mxGeometry x="13.75" width="98.5" height="59" as="geometry" />
        </mxCell>
        <mxCell id="DEF2TjY6wk-Xqv_Ql5yI-13" value="" style="ellipse;whiteSpace=wrap;html=1;aspect=fixed;" vertex="1" parent="DEF2TjY6wk-Xqv_Ql5yI-16">
          <mxGeometry x="19.75" width="59" height="59" as="geometry" />
        </mxCell>
        <mxCell id="DEF2TjY6wk-Xqv_Ql5yI-14" value="" style="endArrow=none;html=1;rounded=0;" edge="1" parent="DEF2TjY6wk-Xqv_Ql5yI-16">
          <mxGeometry width="50" height="50" relative="1" as="geometry">
            <mxPoint y="48.5" as="sourcePoint" />
            <mxPoint y="10.5" as="targetPoint" />
          </mxGeometry>
        </mxCell>
        <mxCell id="DEF2TjY6wk-Xqv_Ql5yI-15" value="" style="endArrow=none;html=1;rounded=0;" edge="1" parent="DEF2TjY6wk-Xqv_Ql5yI-16">
          <mxGeometry width="50" height="50" relative="1" as="geometry">
            <mxPoint y="30" as="sourcePoint" />
            <mxPoint x="20" y="30" as="targetPoint" />
          </mxGeometry>
        </mxCell>
        <mxCell id="DEF2TjY6wk-Xqv_Ql5yI-19" value="Interface : Educando" style="text;html=1;align=center;verticalAlign=middle;resizable=0;points=[];autosize=1;strokeColor=none;fillColor=none;" vertex="1" parent="DEF2TjY6wk-Xqv_Ql5yI-20">
          <mxGeometry y="60" width="129" height="26" as="geometry" />
        </mxCell>
        <mxCell id="DEF2TjY6wk-Xqv_Ql5yI-21" value="Gestao" style="rounded=0;whiteSpace=wrap;html=1;" vertex="1" parent="1">
          <mxGeometry x="3558" y="114.5" width="120" height="60" as="geometry" />
        </mxCell>
        <mxCell id="DEF2TjY6wk-Xqv_Ql5yI-22" value="" style="html=1;points=[[0,0,0,0,5],[0,1,0,0,-5],[1,0,0,0,5],[1,1,0,0,-5]];perimeter=orthogonalPerimeter;outlineConnect=0;targetShapes=umlLifeline;portConstraint=eastwest;newEdgeStyle={&quot;curved&quot;:0,&quot;rounded&quot;:0};" vertex="1" parent="1">
          <mxGeometry x="3613" y="297.5" width="10" height="78" as="geometry" />
        </mxCell>
        <mxCell id="DEF2TjY6wk-Xqv_Ql5yI-23" value="2 : Pegar Usuario(cpf)()" style="html=1;verticalAlign=bottom;endArrow=block;curved=0;rounded=0;entryX=0;entryY=0;entryDx=0;entryDy=5;entryPerimeter=0;" edge="1" parent="1" target="DEF2TjY6wk-Xqv_Ql5yI-22">
          <mxGeometry width="80" relative="1" as="geometry">
            <mxPoint x="3397" y="302.5" as="sourcePoint" />
            <mxPoint x="3556" y="249.5" as="targetPoint" />
          </mxGeometry>
        </mxCell>
        <mxCell id="Owx3ZIMa3h_KAy1xwRSf-5" value="&lt;b&gt;sd&lt;/b&gt; Gerenciamento de usuario" style="shape=umlFrame;whiteSpace=wrap;html=1;pointerEvents=0;width=137;height=63;" vertex="1" parent="1">
          <mxGeometry x="2976" y="39" width="976" height="595" as="geometry" />
        </mxCell>
        <mxCell id="Owx3ZIMa3h_KAy1xwRSf-6" value="" style="endArrow=none;dashed=1;html=1;rounded=0;" edge="1" parent="1" source="DEF2TjY6wk-Xqv_Ql5yI-5">
          <mxGeometry width="50" height="50" relative="1" as="geometry">
            <mxPoint x="3068" y="281.5" as="sourcePoint" />
            <mxPoint x="3145" y="196.5" as="targetPoint" />
          </mxGeometry>
        </mxCell>
        <mxCell id="Owx3ZIMa3h_KAy1xwRSf-7" value="" style="endArrow=none;dashed=1;html=1;rounded=0;entryX=0.5;entryY=1;entryDx=0;entryDy=0;" edge="1" parent="1" source="DEF2TjY6wk-Xqv_Ql5yI-22" target="DEF2TjY6wk-Xqv_Ql5yI-21">
          <mxGeometry width="50" height="50" relative="1" as="geometry">
            <mxPoint x="3617.81" y="282.5" as="sourcePoint" />
            <mxPoint x="3617.81" y="238.5" as="targetPoint" />
          </mxGeometry>
        </mxCell>
        <mxCell id="Owx3ZIMa3h_KAy1xwRSf-8" value="Usuario" style="text;html=1;align=center;verticalAlign=middle;resizable=0;points=[];autosize=1;strokeColor=none;fillColor=none;" vertex="1" parent="1">
          <mxGeometry x="3473" y="348.5" width="59" height="26" as="geometry" />
        </mxCell>
        <mxCell id="Owx3ZIMa3h_KAy1xwRSf-9" value="" style="html=1;points=[[0,0,0,0,5],[0,1,0,0,-5],[1,0,0,0,5],[1,1,0,0,-5]];perimeter=orthogonalPerimeter;outlineConnect=0;targetShapes=umlLifeline;portConstraint=eastwest;newEdgeStyle={&quot;curved&quot;:0,&quot;rounded&quot;:0};" vertex="1" parent="1">
          <mxGeometry x="3387" y="447.5" width="10" height="86" as="geometry" />
        </mxCell>
        <mxCell id="Owx3ZIMa3h_KAy1xwRSf-11" value="" style="endArrow=none;dashed=1;html=1;rounded=0;exitX=0.5;exitY=0;exitDx=0;exitDy=0;exitPerimeter=0;" edge="1" parent="1" source="DEF2TjY6wk-Xqv_Ql5yI-2" target="DEF2TjY6wk-Xqv_Ql5yI-19">
          <mxGeometry width="50" height="50" relative="1" as="geometry">
            <mxPoint x="3390" y="227.5" as="sourcePoint" />
            <mxPoint x="3185" y="210.5" as="targetPoint" />
          </mxGeometry>
        </mxCell>
        <mxCell id="ZbvBIJitQKhqletO3n-S-24" value="Usuario : Actor1" style="shape=umlActor;verticalLabelPosition=bottom;verticalAlign=top;html=1;" vertex="1" parent="1">
          <mxGeometry x="99" y="74" width="30" height="60" as="geometry" />
        </mxCell>
        <mxCell id="ZbvBIJitQKhqletO3n-S-25" value="" style="html=1;points=[[0,0,0,0,5],[0,1,0,0,-5],[1,0,0,0,5],[1,1,0,0,-5]];perimeter=orthogonalPerimeter;outlineConnect=0;targetShapes=umlLifeline;portConstraint=eastwest;newEdgeStyle={&quot;curved&quot;:0,&quot;rounded&quot;:0};" vertex="1" parent="1">
          <mxGeometry x="357" y="200" width="10" height="300" as="geometry" />
        </mxCell>
        <mxCell id="ZbvBIJitQKhqletO3n-S-26" value="1 : Configurar perfil()" style="html=1;verticalAlign=bottom;endArrow=block;curved=0;rounded=0;entryX=0;entryY=0;entryDx=0;entryDy=5;" edge="1" parent="1" source="ZbvBIJitQKhqletO3n-S-28" target="ZbvBIJitQKhqletO3n-S-25">
          <mxGeometry x="0.0042" relative="1" as="geometry">
            <mxPoint x="147" y="199" as="sourcePoint" />
            <mxPoint as="offset" />
          </mxGeometry>
        </mxCell>
        <mxCell id="ZbvBIJitQKhqletO3n-S-27" value="" style="html=1;verticalAlign=bottom;endArrow=open;dashed=1;endSize=8;curved=0;rounded=0;exitX=0;exitY=1;exitDx=0;exitDy=-5;exitPerimeter=0;entryX=1;entryY=1;entryDx=0;entryDy=-5;entryPerimeter=0;" edge="1" parent="1" source="ZbvBIJitQKhqletO3n-S-36">
          <mxGeometry x="-0.002" relative="1" as="geometry">
            <mxPoint x="366" y="329.9999999999999" as="targetPoint" />
            <mxPoint as="offset" />
          </mxGeometry>
        </mxCell>
        <mxCell id="ZbvBIJitQKhqletO3n-S-28" value="" style="html=1;points=[[0,0,0,0,5],[0,1,0,0,-5],[1,0,0,0,5],[1,1,0,0,-5]];perimeter=orthogonalPerimeter;outlineConnect=0;targetShapes=umlLifeline;portConstraint=eastwest;newEdgeStyle={&quot;curved&quot;:0,&quot;rounded&quot;:0};" vertex="1" parent="1">
          <mxGeometry x="109" y="200" width="10" height="300" as="geometry" />
        </mxCell>
        <mxCell id="ZbvBIJitQKhqletO3n-S-35" value="Usuario" style="rounded=0;whiteSpace=wrap;html=1;" vertex="1" parent="1">
          <mxGeometry x="616" y="74" width="120" height="60" as="geometry" />
        </mxCell>
        <mxCell id="ZbvBIJitQKhqletO3n-S-36" value="" style="html=1;points=[[0,0,0,0,5],[0,1,0,0,-5],[1,0,0,0,5],[1,1,0,0,-5]];perimeter=orthogonalPerimeter;outlineConnect=0;targetShapes=umlLifeline;portConstraint=eastwest;newEdgeStyle={&quot;curved&quot;:0,&quot;rounded&quot;:0};" vertex="1" parent="1">
          <mxGeometry x="671" y="257" width="10" height="78" as="geometry" />
        </mxCell>
        <mxCell id="ZbvBIJitQKhqletO3n-S-37" value="2.1 : Criar Usuario(cpf, nome, senha, nivel_fluencia)()" style="html=1;verticalAlign=bottom;endArrow=block;curved=0;rounded=0;entryX=0;entryY=0;entryDx=0;entryDy=5;entryPerimeter=0;" edge="1" parent="1" target="ZbvBIJitQKhqletO3n-S-36">
          <mxGeometry width="80" relative="1" as="geometry">
            <mxPoint x="366" y="262" as="sourcePoint" />
            <mxPoint x="525" y="209" as="targetPoint" />
          </mxGeometry>
        </mxCell>
        <mxCell id="ZbvBIJitQKhqletO3n-S-38" value="" style="endArrow=none;dashed=1;html=1;rounded=0;" edge="1" parent="1" source="ZbvBIJitQKhqletO3n-S-28">
          <mxGeometry width="50" height="50" relative="1" as="geometry">
            <mxPoint x="37" y="241" as="sourcePoint" />
            <mxPoint x="114" y="156" as="targetPoint" />
          </mxGeometry>
        </mxCell>
        <mxCell id="ZbvBIJitQKhqletO3n-S-39" value="" style="endArrow=none;dashed=1;html=1;rounded=0;entryX=0.5;entryY=1;entryDx=0;entryDy=0;" edge="1" parent="1" source="ZbvBIJitQKhqletO3n-S-36" target="ZbvBIJitQKhqletO3n-S-35">
          <mxGeometry width="50" height="50" relative="1" as="geometry">
            <mxPoint x="675.81" y="242" as="sourcePoint" />
            <mxPoint x="675.81" y="198" as="targetPoint" />
          </mxGeometry>
        </mxCell>
        <mxCell id="ZbvBIJitQKhqletO3n-S-43" value="" style="endArrow=none;dashed=1;html=1;rounded=0;exitX=0.5;exitY=0;exitDx=0;exitDy=0;exitPerimeter=0;" edge="1" parent="1" source="ZbvBIJitQKhqletO3n-S-25" target="ZbvBIJitQKhqletO3n-S-34">
          <mxGeometry width="50" height="50" relative="1" as="geometry">
            <mxPoint x="359" y="187" as="sourcePoint" />
            <mxPoint x="154" y="170" as="targetPoint" />
          </mxGeometry>
        </mxCell>
        <mxCell id="Owx3ZIMa3h_KAy1xwRSf-13" value="Usuario" style="text;html=1;align=center;verticalAlign=middle;resizable=0;points=[];autosize=1;strokeColor=none;fillColor=none;" vertex="1" parent="1">
          <mxGeometry x="469" y="306" width="59" height="26" as="geometry" />
        </mxCell>
        <mxCell id="Owx3ZIMa3h_KAy1xwRSf-14" value="3 : Exibe dados do usuÃ¡rio()" style="html=1;verticalAlign=bottom;endArrow=block;curved=0;rounded=0;exitX=0;exitY=0;exitDx=0;exitDy=5;exitPerimeter=0;" edge="1" parent="1">
          <mxGeometry x="0.0038" width="80" relative="1" as="geometry">
            <mxPoint x="356" y="483.9999999999999" as="sourcePoint" />
            <mxPoint x="118.99999999999989" y="483.9999999999999" as="targetPoint" />
            <mxPoint as="offset" />
          </mxGeometry>
        </mxCell>
        <mxCell id="Owx3ZIMa3h_KAy1xwRSf-15" value="" style="shape=umlBoundary;whiteSpace=wrap;html=1;" vertex="1" parent="1">
          <mxGeometry x="306" y="58" width="100" height="80" as="geometry" />
        </mxCell>
        <mxCell id="ZbvBIJitQKhqletO3n-S-34" value="Interface : Educando" style="text;html=1;align=center;verticalAlign=middle;resizable=0;points=[];autosize=1;strokeColor=none;fillColor=none;" vertex="1" parent="1">
          <mxGeometry x="296.5" y="134" width="129" height="26" as="geometry" />
        </mxCell>
        <mxCell id="ZbvBIJitQKhqletO3n-S-46" value="&lt;div style=&quot;font-size: 20px;&quot;&gt;1- Usuario -&amp;gt; configura&lt;/div&gt;&lt;div style=&quot;font-size: 20px;&quot;&gt;2- Interface, pega os dados&lt;/div&gt;&lt;div style=&quot;font-size: 20px;&quot;&gt;3- Objeto, manda dados&lt;/div&gt;&lt;div style=&quot;font-size: 20px;&quot;&gt;4- Usuario manipula as informaÃ§Ãµes, porÃ©m, se for mudar o nÃ­vel de fluencia, ele deve fazer uma prova para saber se tem nÃ­vel para mudar&lt;/div&gt;" style="text;html=1;align=left;verticalAlign=top;whiteSpace=wrap;rounded=0;fontSize=20;" vertex="1" parent="1">
          <mxGeometry x="770" y="34" width="441" height="178" as="geometry" />
        </mxCell>
        <mxCell id="ZbvBIJitQKhqletO3n-S-47" value="4 : Definir preferÃªncias do aplicativo()" style="html=1;verticalAlign=bottom;endArrow=block;curved=0;rounded=0;entryX=0;entryY=0;entryDx=0;entryDy=5;" edge="1" parent="1">
          <mxGeometry x="0.0042" relative="1" as="geometry">
            <mxPoint x="123" y="581" as="sourcePoint" />
            <mxPoint x="360" y="581" as="targetPoint" />
            <mxPoint as="offset" />
          </mxGeometry>
        </mxCell>
        <mxCell id="ZbvBIJitQKhqletO3n-S-51" value="" style="html=1;points=[[0,0,0,0,5],[0,1,0,0,-5],[1,0,0,0,5],[1,1,0,0,-5]];perimeter=orthogonalPerimeter;outlineConnect=0;targetShapes=umlLifeline;portConstraint=eastwest;newEdgeStyle={&quot;curved&quot;:0,&quot;rounded&quot;:0};" vertex="1" parent="1">
          <mxGeometry x="109" y="575" width="10" height="116" as="geometry" />
        </mxCell>
        <mxCell id="Owx3ZIMa3h_KAy1xwRSf-17" value="2.2 : Define nivel de fluÃªncia(nivel)" style="html=1;verticalAlign=bottom;endArrow=block;curved=0;rounded=0;" edge="1" parent="1" source="ZbvBIJitQKhqletO3n-S-25" target="Owx3ZIMa3h_KAy1xwRSf-18">
          <mxGeometry width="80" relative="1" as="geometry">
            <mxPoint x="402" y="388" as="sourcePoint" />
            <mxPoint x="482" y="388" as="targetPoint" />
            <mxPoint as="offset" />
          </mxGeometry>
        </mxCell>
        <mxCell id="Owx3ZIMa3h_KAy1xwRSf-18" value="" style="html=1;points=[[0,0,0,0,5],[0,1,0,0,-5],[1,0,0,0,5],[1,1,0,0,-5]];perimeter=orthogonalPerimeter;outlineConnect=0;targetShapes=umlLifeline;portConstraint=eastwest;newEdgeStyle={&quot;curved&quot;:0,&quot;rounded&quot;:0};" vertex="1" parent="1">
          <mxGeometry x="671" y="367" width="10" height="80" as="geometry" />
        </mxCell>
        <mxCell id="ZbvBIJitQKhqletO3n-S-53" value="" style="endArrow=none;dashed=1;html=1;rounded=0;" edge="1" parent="1" source="ZbvBIJitQKhqletO3n-S-51">
          <mxGeometry width="50" height="50" relative="1" as="geometry">
            <mxPoint x="114" y="534" as="sourcePoint" />
            <mxPoint x="114" y="499" as="targetPoint" />
            <Array as="points">
              <mxPoint x="114" y="516" />
            </Array>
          </mxGeometry>
        </mxCell>
        <mxCell id="Owx3ZIMa3h_KAy1xwRSf-20" value="" style="html=1;verticalAlign=bottom;endArrow=open;dashed=1;endSize=8;curved=0;rounded=0;exitX=0;exitY=1;exitDx=0;exitDy=-5;exitPerimeter=0;" edge="1" parent="1" source="Owx3ZIMa3h_KAy1xwRSf-18" target="ZbvBIJitQKhqletO3n-S-25">
          <mxGeometry x="-0.002" relative="1" as="geometry">
            <mxPoint x="975" y="517" as="targetPoint" />
            <mxPoint as="offset" />
            <mxPoint x="631" y="447" as="sourcePoint" />
          </mxGeometry>
        </mxCell>
        <mxCell id="Owx3ZIMa3h_KAy1xwRSf-21" value="" style="endArrow=none;html=1;rounded=0;" edge="1" parent="1" source="Owx3ZIMa3h_KAy1xwRSf-18" target="ZbvBIJitQKhqletO3n-S-36">
          <mxGeometry width="50" height="50" relative="1" as="geometry">
            <mxPoint x="721" y="382" as="sourcePoint" />
            <mxPoint x="771" y="332" as="targetPoint" />
          </mxGeometry>
        </mxCell>
        <mxCell id="ZbvBIJitQKhqletO3n-S-54" value="" style="html=1;points=[[0,0,0,0,5],[0,1,0,0,-5],[1,0,0,0,5],[1,1,0,0,-5]];perimeter=orthogonalPerimeter;outlineConnect=0;targetShapes=umlLifeline;portConstraint=eastwest;newEdgeStyle={&quot;curved&quot;:0,&quot;rounded&quot;:0};" vertex="1" parent="1">
          <mxGeometry x="356" y="575" width="10" height="112" as="geometry" />
        </mxCell>
        <mxCell id="ZbvBIJitQKhqletO3n-S-56" value="" style="html=1;points=[[0,0,0,0,5],[0,1,0,0,-5],[1,0,0,0,5],[1,1,0,0,-5]];perimeter=orthogonalPerimeter;outlineConnect=0;targetShapes=umlLifeline;portConstraint=eastwest;newEdgeStyle={&quot;curved&quot;:0,&quot;rounded&quot;:0};" vertex="1" parent="1">
          <mxGeometry x="639" y="598" width="10" height="64" as="geometry" />
        </mxCell>
        <mxCell id="ZbvBIJitQKhqletO3n-S-57" value="4.1 : Alterar configuraÃ§Ãµes do Aplicativo(Opces)" style="html=1;verticalAlign=bottom;endArrow=block;curved=0;rounded=0;" edge="1" parent="1" target="ZbvBIJitQKhqletO3n-S-56">
          <mxGeometry x="0.0031" relative="1" as="geometry">
            <mxPoint x="366" y="603.63" as="sourcePoint" />
            <mxPoint x="603" y="603.63" as="targetPoint" />
            <mxPoint as="offset" />
          </mxGeometry>
        </mxCell>
        <mxCell id="Owx3ZIMa3h_KAy1xwRSf-23" value="Usuario : Actor1" style="shape=umlActor;verticalLabelPosition=bottom;verticalAlign=top;html=1;" vertex="1" parent="1">
          <mxGeometry x="77" y="1468" width="30" height="60" as="geometry" />
        </mxCell>
        <mxCell id="Owx3ZIMa3h_KAy1xwRSf-24" value="" style="html=1;points=[[0,0,0,0,5],[0,1,0,0,-5],[1,0,0,0,5],[1,1,0,0,-5]];perimeter=orthogonalPerimeter;outlineConnect=0;targetShapes=umlLifeline;portConstraint=eastwest;newEdgeStyle={&quot;curved&quot;:0,&quot;rounded&quot;:0};" vertex="1" parent="1">
          <mxGeometry x="334" y="1593" width="10" height="276" as="geometry" />
        </mxCell>
        <mxCell id="Owx3ZIMa3h_KAy1xwRSf-25" value="1 : Realizar LiÃ§Ã£o()" style="html=1;verticalAlign=bottom;endArrow=block;curved=0;rounded=0;entryX=0;entryY=0;entryDx=0;entryDy=5;" edge="1" parent="1" source="Owx3ZIMa3h_KAy1xwRSf-27" target="Owx3ZIMa3h_KAy1xwRSf-24">
          <mxGeometry x="0.0042" relative="1" as="geometry">
            <mxPoint x="125" y="1593" as="sourcePoint" />
            <mxPoint as="offset" />
          </mxGeometry>
        </mxCell>
        <mxCell id="Owx3ZIMa3h_KAy1xwRSf-27" value="" style="html=1;points=[[0,0,0,0,5],[0,1,0,0,-5],[1,0,0,0,5],[1,1,0,0,-5]];perimeter=orthogonalPerimeter;outlineConnect=0;targetShapes=umlLifeline;portConstraint=eastwest;newEdgeStyle={&quot;curved&quot;:0,&quot;rounded&quot;:0};" vertex="1" parent="1">
          <mxGeometry x="87" y="1594" width="10" height="278" as="geometry" />
        </mxCell>
        <mxCell id="Owx3ZIMa3h_KAy1xwRSf-28" value="Usuario" style="rounded=0;whiteSpace=wrap;html=1;" vertex="1" parent="1">
          <mxGeometry x="561" y="1468" width="120" height="60" as="geometry" />
        </mxCell>
        <mxCell id="Owx3ZIMa3h_KAy1xwRSf-29" value="" style="html=1;points=[[0,0,0,0,5],[0,1,0,0,-5],[1,0,0,0,5],[1,1,0,0,-5]];perimeter=orthogonalPerimeter;outlineConnect=0;targetShapes=umlLifeline;portConstraint=eastwest;newEdgeStyle={&quot;curved&quot;:0,&quot;rounded&quot;:0};" vertex="1" parent="1">
          <mxGeometry x="616" y="1651" width="10" height="53" as="geometry" />
        </mxCell>
        <mxCell id="Owx3ZIMa3h_KAy1xwRSf-30" value="Acessar curso(curso_id)()" style="html=1;verticalAlign=bottom;endArrow=block;curved=0;rounded=0;entryX=0;entryY=0;entryDx=0;entryDy=5;entryPerimeter=0;" edge="1" parent="1" target="Owx3ZIMa3h_KAy1xwRSf-29">
          <mxGeometry width="80" relative="1" as="geometry">
            <mxPoint x="344" y="1656" as="sourcePoint" />
            <mxPoint x="503" y="1603" as="targetPoint" />
          </mxGeometry>
        </mxCell>
        <mxCell id="Owx3ZIMa3h_KAy1xwRSf-31" value="" style="endArrow=none;dashed=1;html=1;rounded=0;" edge="1" parent="1" source="Owx3ZIMa3h_KAy1xwRSf-27">
          <mxGeometry width="50" height="50" relative="1" as="geometry">
            <mxPoint x="15" y="1635" as="sourcePoint" />
            <mxPoint x="92" y="1550" as="targetPoint" />
          </mxGeometry>
        </mxCell>
        <mxCell id="Owx3ZIMa3h_KAy1xwRSf-32" value="" style="endArrow=none;dashed=1;html=1;rounded=0;entryX=0.5;entryY=1;entryDx=0;entryDy=0;" edge="1" parent="1" source="Owx3ZIMa3h_KAy1xwRSf-29" target="Owx3ZIMa3h_KAy1xwRSf-28">
          <mxGeometry width="50" height="50" relative="1" as="geometry">
            <mxPoint x="620.81" y="1636" as="sourcePoint" />
            <mxPoint x="620.81" y="1592" as="targetPoint" />
          </mxGeometry>
        </mxCell>
        <mxCell id="Owx3ZIMa3h_KAy1xwRSf-34" value="" style="endArrow=none;dashed=1;html=1;rounded=0;exitX=0.5;exitY=0;exitDx=0;exitDy=0;exitPerimeter=0;" edge="1" parent="1" source="Owx3ZIMa3h_KAy1xwRSf-24" target="Owx3ZIMa3h_KAy1xwRSf-38">
          <mxGeometry width="50" height="50" relative="1" as="geometry">
            <mxPoint x="337" y="1581" as="sourcePoint" />
            <mxPoint x="132" y="1564" as="targetPoint" />
          </mxGeometry>
        </mxCell>
        <mxCell id="Owx3ZIMa3h_KAy1xwRSf-37" value="" style="shape=umlBoundary;whiteSpace=wrap;html=1;" vertex="1" parent="1">
          <mxGeometry x="284" y="1452" width="100" height="80" as="geometry" />
        </mxCell>
        <mxCell id="Owx3ZIMa3h_KAy1xwRSf-38" value="Interface : Educando" style="text;html=1;align=center;verticalAlign=middle;resizable=0;points=[];autosize=1;strokeColor=none;fillColor=none;" vertex="1" parent="1">
          <mxGeometry x="274.5" y="1528" width="129" height="26" as="geometry" />
        </mxCell>
        <mxCell id="Owx3ZIMa3h_KAy1xwRSf-50" value="Curso" style="html=1;whiteSpace=wrap;" vertex="1" parent="1">
          <mxGeometry x="819" y="1473" width="110" height="50" as="geometry" />
        </mxCell>
        <mxCell id="ZbvBIJitQKhqletO3n-S-58" value="&lt;span style=&quot;font-size: 8px; text-wrap: nowrap; background-color: rgb(255, 255, 255);&quot;&gt;(Fonte, modo de luz)&lt;/span&gt;" style="text;html=1;align=center;verticalAlign=middle;whiteSpace=wrap;rounded=0;fontSize=8;" vertex="1" parent="1">
          <mxGeometry x="203" y="575" width="60" height="30" as="geometry" />
        </mxCell>
        <mxCell id="Owx3ZIMa3h_KAy1xwRSf-51" value="Acessar liÃ§Ã£o(licao_id)()" style="html=1;verticalAlign=bottom;endArrow=block;curved=0;rounded=0;entryX=0;entryY=0;entryDx=0;entryDy=5;entryPerimeter=0;" edge="1" parent="1" source="Owx3ZIMa3h_KAy1xwRSf-29" target="Owx3ZIMa3h_KAy1xwRSf-52">
          <mxGeometry width="80" relative="1" as="geometry">
            <mxPoint x="652" y="1708" as="sourcePoint" />
            <mxPoint x="861" y="1708" as="targetPoint" />
            <mxPoint as="offset" />
          </mxGeometry>
        </mxCell>
        <mxCell id="Owx3ZIMa3h_KAy1xwRSf-52" value="" style="html=1;points=[[0,0,0,0,5],[0,1,0,0,-5],[1,0,0,0,5],[1,1,0,0,-5]];perimeter=orthogonalPerimeter;outlineConnect=0;targetShapes=umlLifeline;portConstraint=eastwest;newEdgeStyle={&quot;curved&quot;:0,&quot;rounded&quot;:0};" vertex="1" parent="1">
          <mxGeometry x="869" y="1692" width="10" height="80" as="geometry" />
        </mxCell>
        <mxCell id="Owx3ZIMa3h_KAy1xwRSf-53" value="" style="endArrow=none;dashed=1;html=1;rounded=0;entryX=0.5;entryY=1;entryDx=0;entryDy=0;" edge="1" parent="1" source="Owx3ZIMa3h_KAy1xwRSf-52" target="Owx3ZIMa3h_KAy1xwRSf-50">
          <mxGeometry width="50" height="50" relative="1" as="geometry">
            <mxPoint x="947" y="1652" as="sourcePoint" />
            <mxPoint x="997" y="1602" as="targetPoint" />
          </mxGeometry>
        </mxCell>
        <mxCell id="ZbvBIJitQKhqletO3n-S-60" value="" style="html=1;verticalAlign=bottom;endArrow=open;dashed=1;endSize=8;curved=0;rounded=0;exitX=0;exitY=1;exitDx=0;exitDy=-5;exitPerimeter=0;entryX=1;entryY=1;entryDx=0;entryDy=-5;entryPerimeter=0;" edge="1" parent="1">
          <mxGeometry x="-0.002" relative="1" as="geometry">
            <mxPoint x="366" y="653" as="targetPoint" />
            <mxPoint as="offset" />
            <mxPoint x="638" y="654" as="sourcePoint" />
          </mxGeometry>
        </mxCell>
        <mxCell id="ZbvBIJitQKhqletO3n-S-61" value="&lt;b&gt;sd&lt;/b&gt; ConfiguraÃ§Ã£o de Perfil" style="shape=umlFrame;whiteSpace=wrap;html=1;pointerEvents=0;width=171;height=43;" vertex="1" parent="1">
          <mxGeometry width="751" height="745" as="geometry" />
        </mxCell>
        <mxCell id="Owx3ZIMa3h_KAy1xwRSf-54" value="" style="html=1;verticalAlign=bottom;endArrow=open;dashed=1;endSize=8;curved=0;rounded=0;exitX=0;exitY=1;exitDx=0;exitDy=-5;exitPerimeter=0;" edge="1" parent="1" source="ZbvBIJitQKhqletO3n-S-54" target="ZbvBIJitQKhqletO3n-S-51">
          <mxGeometry x="-0.002" relative="1" as="geometry">
            <mxPoint x="69" y="662" as="targetPoint" />
            <mxPoint as="offset" />
            <mxPoint x="341" y="663" as="sourcePoint" />
          </mxGeometry>
        </mxCell>
        <mxCell id="Owx3ZIMa3h_KAy1xwRSf-55" value="Licao" style="html=1;whiteSpace=wrap;" vertex="1" parent="1">
          <mxGeometry x="1116" y="1473" width="110" height="50" as="geometry" />
        </mxCell>
        <mxCell id="Owx3ZIMa3h_KAy1xwRSf-56" value="Fazer liÃ§Ã£o(licao)()" style="html=1;verticalAlign=bottom;endArrow=block;curved=0;rounded=0;exitX=1;exitY=1;exitDx=0;exitDy=-5;exitPerimeter=0;entryX=0;entryY=0;entryDx=0;entryDy=5;entryPerimeter=0;" edge="1" parent="1" source="Owx3ZIMa3h_KAy1xwRSf-52" target="Owx3ZIMa3h_KAy1xwRSf-57">
          <mxGeometry width="80" relative="1" as="geometry">
            <mxPoint x="1052" y="1771" as="sourcePoint" />
            <mxPoint x="1132" y="1771" as="targetPoint" />
          </mxGeometry>
        </mxCell>
        <mxCell id="Owx3ZIMa3h_KAy1xwRSf-57" value="" style="html=1;points=[[0,0,0,0,5],[0,1,0,0,-5],[1,0,0,0,5],[1,1,0,0,-5]];perimeter=orthogonalPerimeter;outlineConnect=0;targetShapes=umlLifeline;portConstraint=eastwest;newEdgeStyle={&quot;curved&quot;:0,&quot;rounded&quot;:0};" vertex="1" parent="1">
          <mxGeometry x="1166" y="1761" width="10" height="80" as="geometry" />
        </mxCell>
        <mxCell id="Owx3ZIMa3h_KAy1xwRSf-58" value="" style="endArrow=none;dashed=1;html=1;rounded=0;entryX=0.5;entryY=1;entryDx=0;entryDy=0;" edge="1" parent="1" source="Owx3ZIMa3h_KAy1xwRSf-57" target="Owx3ZIMa3h_KAy1xwRSf-55">
          <mxGeometry width="50" height="50" relative="1" as="geometry">
            <mxPoint x="1187" y="1657" as="sourcePoint" />
            <mxPoint x="1237" y="1607" as="targetPoint" />
          </mxGeometry>
        </mxCell>
        <mxCell id="Owx3ZIMa3h_KAy1xwRSf-59" value="Exercicio" style="html=1;whiteSpace=wrap;" vertex="1" parent="1">
          <mxGeometry x="1335" y="1473" width="110" height="50" as="geometry" />
        </mxCell>
        <mxCell id="Owx3ZIMa3h_KAy1xwRSf-60" value="Fazer Exercicios" style="html=1;verticalAlign=bottom;endArrow=block;curved=0;rounded=0;" edge="1" parent="1">
          <mxGeometry width="80" relative="1" as="geometry">
            <mxPoint x="1199" y="1778" as="sourcePoint" />
            <mxPoint x="1324" y="1778" as="targetPoint" />
          </mxGeometry>
        </mxCell>
        <mxCell id="ZbvBIJitQKhqletO3n-S-62" value="" style="endArrow=open;endFill=1;endSize=12;html=1;rounded=0;" edge="1" parent="1">
          <mxGeometry width="160" relative="1" as="geometry">
            <mxPoint x="3386.9999999999995" y="397.5" as="sourcePoint" />
            <mxPoint x="3150" y="397.5" as="targetPoint" />
          </mxGeometry>
        </mxCell>
        <mxCell id="ZbvBIJitQKhqletO3n-S-63" value="3 : Listas dos Usuarios" style="edgeLabel;html=1;align=center;verticalAlign=middle;resizable=0;points=[];" connectable="0" vertex="1" parent="ZbvBIJitQKhqletO3n-S-62">
          <mxGeometry x="-0.1919" y="-1" relative="1" as="geometry">
            <mxPoint x="-23" y="-8" as="offset" />
          </mxGeometry>
        </mxCell>
        <mxCell id="Owx3ZIMa3h_KAy1xwRSf-61" value="return" style="html=1;verticalAlign=bottom;endArrow=open;dashed=1;endSize=8;curved=0;rounded=0;" edge="1" parent="1">
          <mxGeometry relative="1" as="geometry">
            <mxPoint x="1023" y="1861" as="sourcePoint" />
            <mxPoint x="476" y="1858" as="targetPoint" />
          </mxGeometry>
        </mxCell>
        <mxCell id="ZbvBIJitQKhqletO3n-S-64" value="1 : Lista de mudanÃ§a Usuario()" style="html=1;verticalAlign=bottom;endArrow=block;curved=0;rounded=0;" edge="1" parent="1" target="Owx3ZIMa3h_KAy1xwRSf-9">
          <mxGeometry x="0.0006" relative="1" as="geometry">
            <mxPoint x="3145" y="464.5" as="sourcePoint" />
            <mxPoint x="3382" y="464.5" as="targetPoint" />
            <mxPoint as="offset" />
          </mxGeometry>
        </mxCell>
        <mxCell id="ZbvBIJitQKhqletO3n-S-65" value="" style="html=1;points=[[0,0,0,0,5],[0,1,0,0,-5],[1,0,0,0,5],[1,1,0,0,-5]];perimeter=orthogonalPerimeter;outlineConnect=0;targetShapes=umlLifeline;portConstraint=eastwest;newEdgeStyle={&quot;curved&quot;:0,&quot;rounded&quot;:0};" vertex="1" parent="1">
          <mxGeometry x="3140" y="450.5" width="10" height="86" as="geometry" />
        </mxCell>
        <mxCell id="ZbvBIJitQKhqletO3n-S-66" value="" style="endArrow=none;dashed=1;html=1;rounded=0;" edge="1" parent="1" source="Owx3ZIMa3h_KAy1xwRSf-9">
          <mxGeometry width="50" height="50" relative="1" as="geometry">
            <mxPoint x="3392" y="451.5" as="sourcePoint" />
            <mxPoint x="3392" y="417.5" as="targetPoint" />
          </mxGeometry>
        </mxCell>
        <mxCell id="ZbvBIJitQKhqletO3n-S-67" value="" style="endArrow=none;dashed=1;html=1;rounded=0;" edge="1" parent="1">
          <mxGeometry width="50" height="50" relative="1" as="geometry">
            <mxPoint x="3144.86" y="449.5" as="sourcePoint" />
            <mxPoint x="3144.86" y="419.5" as="targetPoint" />
          </mxGeometry>
        </mxCell>
        <mxCell id="ZbvBIJitQKhqletO3n-S-68" value="Usuario" style="rounded=0;whiteSpace=wrap;html=1;" vertex="1" parent="1">
          <mxGeometry x="3758" y="113.5" width="120" height="60" as="geometry" />
        </mxCell>
        <mxCell id="ZbvBIJitQKhqletO3n-S-69" value="" style="html=1;points=[[0,0,0,0,5],[0,1,0,0,-5],[1,0,0,0,5],[1,1,0,0,-5]];perimeter=orthogonalPerimeter;outlineConnect=0;targetShapes=umlLifeline;portConstraint=eastwest;newEdgeStyle={&quot;curved&quot;:0,&quot;rounded&quot;:0};" vertex="1" parent="1">
          <mxGeometry x="3813" y="442.5" width="10" height="78" as="geometry" />
        </mxCell>
        <mxCell id="ZbvBIJitQKhqletO3n-S-70" value="" style="endArrow=none;dashed=1;html=1;rounded=0;entryX=0.5;entryY=1;entryDx=0;entryDy=0;" edge="1" parent="1" source="ZbvBIJitQKhqletO3n-S-69" target="ZbvBIJitQKhqletO3n-S-68">
          <mxGeometry width="50" height="50" relative="1" as="geometry">
            <mxPoint x="3817.81" y="281.5" as="sourcePoint" />
            <mxPoint x="3817.81" y="237.5" as="targetPoint" />
          </mxGeometry>
        </mxCell>
        <mxCell id="ZbvBIJitQKhqletO3n-S-71" value="2 : Alterar os dados Usuario()" style="html=1;verticalAlign=bottom;endArrow=block;curved=0;rounded=0;" edge="1" parent="1" target="ZbvBIJitQKhqletO3n-S-69">
          <mxGeometry x="0.0024" relative="1" as="geometry">
            <mxPoint x="3392" y="478.5" as="sourcePoint" />
            <mxPoint x="3634" y="478.5" as="targetPoint" />
            <mxPoint as="offset" />
          </mxGeometry>
        </mxCell>
        <mxCell id="Owx3ZIMa3h_KAy1xwRSf-178" value="&lt;b&gt;sd&lt;/b&gt; Realizar liÃ§Ã£o" style="shape=umlFrame;whiteSpace=wrap;html=1;pointerEvents=0;width=169;height=33;" vertex="1" parent="1">
          <mxGeometry x="8" y="1351" width="1456" height="644" as="geometry" />
        </mxCell>
        <mxCell id="Owx3ZIMa3h_KAy1xwRSf-179" value="Administrador : Actor2" style="shape=umlActor;verticalLabelPosition=bottom;verticalAlign=top;html=1;" vertex="1" parent="1">
          <mxGeometry x="2556" y="1387" width="30" height="60" as="geometry" />
        </mxCell>
        <mxCell id="Owx3ZIMa3h_KAy1xwRSf-180" value="" style="html=1;points=[[0,0,0,0,5],[0,1,0,0,-5],[1,0,0,0,5],[1,1,0,0,-5]];perimeter=orthogonalPerimeter;outlineConnect=0;targetShapes=umlLifeline;portConstraint=eastwest;newEdgeStyle={&quot;curved&quot;:0,&quot;rounded&quot;:0};" vertex="1" parent="1">
          <mxGeometry x="2814" y="1513" width="10" height="300" as="geometry" />
        </mxCell>
        <mxCell id="Owx3ZIMa3h_KAy1xwRSf-181" value="1 : Configurar perfil()" style="html=1;verticalAlign=bottom;endArrow=block;curved=0;rounded=0;entryX=0;entryY=0;entryDx=0;entryDy=5;" edge="1" parent="1" source="Owx3ZIMa3h_KAy1xwRSf-183" target="Owx3ZIMa3h_KAy1xwRSf-180">
          <mxGeometry x="0.0042" relative="1" as="geometry">
            <mxPoint x="2604" y="1512" as="sourcePoint" />
            <mxPoint as="offset" />
          </mxGeometry>
        </mxCell>
        <mxCell id="Owx3ZIMa3h_KAy1xwRSf-182" value="" style="html=1;verticalAlign=bottom;endArrow=open;dashed=1;endSize=8;curved=0;rounded=0;exitX=0;exitY=1;exitDx=0;exitDy=-5;exitPerimeter=0;entryX=1;entryY=1;entryDx=0;entryDy=-5;entryPerimeter=0;" edge="1" parent="1" source="Owx3ZIMa3h_KAy1xwRSf-185">
          <mxGeometry x="-0.002" relative="1" as="geometry">
            <mxPoint x="2823" y="1643" as="targetPoint" />
            <mxPoint as="offset" />
          </mxGeometry>
        </mxCell>
        <mxCell id="Owx3ZIMa3h_KAy1xwRSf-183" value="" style="html=1;points=[[0,0,0,0,5],[0,1,0,0,-5],[1,0,0,0,5],[1,1,0,0,-5]];perimeter=orthogonalPerimeter;outlineConnect=0;targetShapes=umlLifeline;portConstraint=eastwest;newEdgeStyle={&quot;curved&quot;:0,&quot;rounded&quot;:0};" vertex="1" parent="1">
          <mxGeometry x="2566" y="1513" width="10" height="300" as="geometry" />
        </mxCell>
        <mxCell id="Owx3ZIMa3h_KAy1xwRSf-184" value="Usuario" style="rounded=0;whiteSpace=wrap;html=1;" vertex="1" parent="1">
          <mxGeometry x="3073" y="1387" width="120" height="60" as="geometry" />
        </mxCell>
        <mxCell id="Owx3ZIMa3h_KAy1xwRSf-185" value="" style="html=1;points=[[0,0,0,0,5],[0,1,0,0,-5],[1,0,0,0,5],[1,1,0,0,-5]];perimeter=orthogonalPerimeter;outlineConnect=0;targetShapes=umlLifeline;portConstraint=eastwest;newEdgeStyle={&quot;curved&quot;:0,&quot;rounded&quot;:0};" vertex="1" parent="1">
          <mxGeometry x="3128" y="1570" width="10" height="78" as="geometry" />
        </mxCell>
        <mxCell id="Owx3ZIMa3h_KAy1xwRSf-186" value="2.1 : Criar Usuario(cpf, nome, senha, nivel_fluencia)()" style="html=1;verticalAlign=bottom;endArrow=block;curved=0;rounded=0;entryX=0;entryY=0;entryDx=0;entryDy=5;entryPerimeter=0;" edge="1" parent="1" target="Owx3ZIMa3h_KAy1xwRSf-185">
          <mxGeometry width="80" relative="1" as="geometry">
            <mxPoint x="2823" y="1575" as="sourcePoint" />
            <mxPoint x="2982" y="1522" as="targetPoint" />
          </mxGeometry>
        </mxCell>
        <mxCell id="Owx3ZIMa3h_KAy1xwRSf-187" value="" style="endArrow=none;dashed=1;html=1;rounded=0;" edge="1" parent="1" source="Owx3ZIMa3h_KAy1xwRSf-183">
          <mxGeometry width="50" height="50" relative="1" as="geometry">
            <mxPoint x="2494" y="1554" as="sourcePoint" />
            <mxPoint x="2571" y="1469" as="targetPoint" />
          </mxGeometry>
        </mxCell>
        <mxCell id="Owx3ZIMa3h_KAy1xwRSf-188" value="" style="endArrow=none;dashed=1;html=1;rounded=0;entryX=0.5;entryY=1;entryDx=0;entryDy=0;" edge="1" parent="1" source="Owx3ZIMa3h_KAy1xwRSf-185" target="Owx3ZIMa3h_KAy1xwRSf-184">
          <mxGeometry width="50" height="50" relative="1" as="geometry">
            <mxPoint x="3132.81" y="1555" as="sourcePoint" />
            <mxPoint x="3132.81" y="1511" as="targetPoint" />
          </mxGeometry>
        </mxCell>
        <mxCell id="Owx3ZIMa3h_KAy1xwRSf-189" value="" style="endArrow=none;dashed=1;html=1;rounded=0;exitX=0.5;exitY=0;exitDx=0;exitDy=0;exitPerimeter=0;" edge="1" parent="1" source="Owx3ZIMa3h_KAy1xwRSf-180" target="Owx3ZIMa3h_KAy1xwRSf-193">
          <mxGeometry width="50" height="50" relative="1" as="geometry">
            <mxPoint x="2816" y="1500" as="sourcePoint" />
            <mxPoint x="2611" y="1483" as="targetPoint" />
          </mxGeometry>
        </mxCell>
        <mxCell id="Owx3ZIMa3h_KAy1xwRSf-190" value="Usuario" style="text;html=1;align=center;verticalAlign=middle;resizable=0;points=[];autosize=1;strokeColor=none;fillColor=none;" vertex="1" parent="1">
          <mxGeometry x="2926" y="1619" width="59" height="26" as="geometry" />
        </mxCell>
        <mxCell id="Owx3ZIMa3h_KAy1xwRSf-191" value="3 : Exibe dados do usuÃ¡rio()" style="html=1;verticalAlign=bottom;endArrow=block;curved=0;rounded=0;exitX=0;exitY=0;exitDx=0;exitDy=5;exitPerimeter=0;" edge="1" parent="1">
          <mxGeometry x="0.0038" width="80" relative="1" as="geometry">
            <mxPoint x="2813" y="1797" as="sourcePoint" />
            <mxPoint x="2576" y="1797" as="targetPoint" />
            <mxPoint as="offset" />
          </mxGeometry>
        </mxCell>
        <mxCell id="Owx3ZIMa3h_KAy1xwRSf-192" value="" style="shape=umlBoundary;whiteSpace=wrap;html=1;" vertex="1" parent="1">
          <mxGeometry x="2763" y="1371" width="100" height="80" as="geometry" />
        </mxCell>
        <mxCell id="Owx3ZIMa3h_KAy1xwRSf-193" value="Interface : Educando" style="text;html=1;align=center;verticalAlign=middle;resizable=0;points=[];autosize=1;strokeColor=none;fillColor=none;" vertex="1" parent="1">
          <mxGeometry x="2753.5" y="1447" width="129" height="26" as="geometry" />
        </mxCell>
        <mxCell id="Owx3ZIMa3h_KAy1xwRSf-194" value="4 : Definir preferÃªncias do aplicativo()" style="html=1;verticalAlign=bottom;endArrow=block;curved=0;rounded=0;entryX=0;entryY=0;entryDx=0;entryDy=5;" edge="1" parent="1">
          <mxGeometry x="0.0042" relative="1" as="geometry">
            <mxPoint x="2580" y="1894" as="sourcePoint" />
            <mxPoint x="2817" y="1894" as="targetPoint" />
            <mxPoint as="offset" />
          </mxGeometry>
        </mxCell>
        <mxCell id="Owx3ZIMa3h_KAy1xwRSf-195" value="" style="html=1;points=[[0,0,0,0,5],[0,1,0,0,-5],[1,0,0,0,5],[1,1,0,0,-5]];perimeter=orthogonalPerimeter;outlineConnect=0;targetShapes=umlLifeline;portConstraint=eastwest;newEdgeStyle={&quot;curved&quot;:0,&quot;rounded&quot;:0};" vertex="1" parent="1">
          <mxGeometry x="2566" y="1888" width="10" height="116" as="geometry" />
        </mxCell>
        <mxCell id="Owx3ZIMa3h_KAy1xwRSf-196" value="2.2 : Define nivel de fluÃªncia(nivel)" style="html=1;verticalAlign=bottom;endArrow=block;curved=0;rounded=0;" edge="1" parent="1" source="Owx3ZIMa3h_KAy1xwRSf-180" target="Owx3ZIMa3h_KAy1xwRSf-197">
          <mxGeometry width="80" relative="1" as="geometry">
            <mxPoint x="2859" y="1701" as="sourcePoint" />
            <mxPoint x="2939" y="1701" as="targetPoint" />
            <mxPoint as="offset" />
          </mxGeometry>
        </mxCell>
        <mxCell id="Owx3ZIMa3h_KAy1xwRSf-197" value="" style="html=1;points=[[0,0,0,0,5],[0,1,0,0,-5],[1,0,0,0,5],[1,1,0,0,-5]];perimeter=orthogonalPerimeter;outlineConnect=0;targetShapes=umlLifeline;portConstraint=eastwest;newEdgeStyle={&quot;curved&quot;:0,&quot;rounded&quot;:0};" vertex="1" parent="1">
          <mxGeometry x="3128" y="1680" width="10" height="80" as="geometry" />
        </mxCell>
        <mxCell id="Owx3ZIMa3h_KAy1xwRSf-198" value="" style="endArrow=none;dashed=1;html=1;rounded=0;" edge="1" parent="1" source="Owx3ZIMa3h_KAy1xwRSf-195">
          <mxGeometry width="50" height="50" relative="1" as="geometry">
            <mxPoint x="2571" y="1847" as="sourcePoint" />
            <mxPoint x="2571" y="1812" as="targetPoint" />
            <Array as="points">
              <mxPoint x="2571" y="1829" />
            </Array>
          </mxGeometry>
        </mxCell>
        <mxCell id="Owx3ZIMa3h_KAy1xwRSf-199" value="" style="html=1;verticalAlign=bottom;endArrow=open;dashed=1;endSize=8;curved=0;rounded=0;exitX=0;exitY=1;exitDx=0;exitDy=-5;exitPerimeter=0;" edge="1" parent="1" source="Owx3ZIMa3h_KAy1xwRSf-197" target="Owx3ZIMa3h_KAy1xwRSf-180">
          <mxGeometry x="-0.002" relative="1" as="geometry">
            <mxPoint x="3432" y="1830" as="targetPoint" />
            <mxPoint as="offset" />
            <mxPoint x="3088" y="1760" as="sourcePoint" />
          </mxGeometry>
        </mxCell>
        <mxCell id="Owx3ZIMa3h_KAy1xwRSf-200" value="" style="endArrow=none;html=1;rounded=0;" edge="1" parent="1" source="Owx3ZIMa3h_KAy1xwRSf-197" target="Owx3ZIMa3h_KAy1xwRSf-185">
          <mxGeometry width="50" height="50" relative="1" as="geometry">
            <mxPoint x="3178" y="1695" as="sourcePoint" />
            <mxPoint x="3228" y="1645" as="targetPoint" />
          </mxGeometry>
        </mxCell>
        <mxCell id="Owx3ZIMa3h_KAy1xwRSf-201" value="" style="html=1;points=[[0,0,0,0,5],[0,1,0,0,-5],[1,0,0,0,5],[1,1,0,0,-5]];perimeter=orthogonalPerimeter;outlineConnect=0;targetShapes=umlLifeline;portConstraint=eastwest;newEdgeStyle={&quot;curved&quot;:0,&quot;rounded&quot;:0};" vertex="1" parent="1">
          <mxGeometry x="2813" y="1888" width="10" height="112" as="geometry" />
        </mxCell>
        <mxCell id="Owx3ZIMa3h_KAy1xwRSf-202" value="" style="html=1;points=[[0,0,0,0,5],[0,1,0,0,-5],[1,0,0,0,5],[1,1,0,0,-5]];perimeter=orthogonalPerimeter;outlineConnect=0;targetShapes=umlLifeline;portConstraint=eastwest;newEdgeStyle={&quot;curved&quot;:0,&quot;rounded&quot;:0};" vertex="1" parent="1">
          <mxGeometry x="3096" y="1911" width="10" height="64" as="geometry" />
        </mxCell>
        <mxCell id="Owx3ZIMa3h_KAy1xwRSf-203" value="4.1 : Alterar configuraÃ§Ãµes do Aplicativo(Opces)" style="html=1;verticalAlign=bottom;endArrow=block;curved=0;rounded=0;" edge="1" parent="1" target="Owx3ZIMa3h_KAy1xwRSf-202">
          <mxGeometry x="0.0031" relative="1" as="geometry">
            <mxPoint x="2823" y="1916.63" as="sourcePoint" />
            <mxPoint x="3060" y="1916.63" as="targetPoint" />
            <mxPoint as="offset" />
          </mxGeometry>
        </mxCell>
        <mxCell id="Owx3ZIMa3h_KAy1xwRSf-204" value="&lt;span style=&quot;font-size: 8px; text-wrap: nowrap; background-color: rgb(255, 255, 255);&quot;&gt;(Fonte, modo de luz)&lt;/span&gt;" style="text;html=1;align=center;verticalAlign=middle;whiteSpace=wrap;rounded=0;fontSize=8;" vertex="1" parent="1">
          <mxGeometry x="2660" y="1888" width="60" height="30" as="geometry" />
        </mxCell>
        <mxCell id="Owx3ZIMa3h_KAy1xwRSf-205" value="" style="html=1;verticalAlign=bottom;endArrow=open;dashed=1;endSize=8;curved=0;rounded=0;exitX=0;exitY=1;exitDx=0;exitDy=-5;exitPerimeter=0;entryX=1;entryY=1;entryDx=0;entryDy=-5;entryPerimeter=0;" edge="1" parent="1">
          <mxGeometry x="-0.002" relative="1" as="geometry">
            <mxPoint x="2823" y="1966" as="targetPoint" />
            <mxPoint as="offset" />
            <mxPoint x="3095" y="1967" as="sourcePoint" />
          </mxGeometry>
        </mxCell>
        <mxCell id="Owx3ZIMa3h_KAy1xwRSf-206" value="&lt;b&gt;sd&lt;/b&gt; ConfiguraÃ§Ã£o de Perfil" style="shape=umlFrame;whiteSpace=wrap;html=1;pointerEvents=0;width=171;height=43;" vertex="1" parent="1">
          <mxGeometry x="2457" y="1313" width="751" height="745" as="geometry" />
        </mxCell>
        <mxCell id="Owx3ZIMa3h_KAy1xwRSf-207" value="" style="html=1;verticalAlign=bottom;endArrow=open;dashed=1;endSize=8;curved=0;rounded=0;exitX=0;exitY=1;exitDx=0;exitDy=-5;exitPerimeter=0;" edge="1" parent="1" source="Owx3ZIMa3h_KAy1xwRSf-201" target="Owx3ZIMa3h_KAy1xwRSf-195">
          <mxGeometry x="-0.002" relative="1" as="geometry">
            <mxPoint x="2526" y="1975" as="targetPoint" />
            <mxPoint as="offset" />
            <mxPoint x="2798" y="1976" as="sourcePoint" />
          </mxGeometry>
        </mxCell>
        <mxCell id="Owx3ZIMa3h_KAy1xwRSf-208" value="Administrador : Actor2" style="shape=umlActor;verticalLabelPosition=bottom;verticalAlign=top;html=1;" vertex="1" parent="1">
          <mxGeometry x="3307" y="3022" width="30" height="60" as="geometry" />
        </mxCell>
        <mxCell id="Owx3ZIMa3h_KAy1xwRSf-209" value="" style="html=1;points=[[0,0,0,0,5],[0,1,0,0,-5],[1,0,0,0,5],[1,1,0,0,-5]];perimeter=orthogonalPerimeter;outlineConnect=0;targetShapes=umlLifeline;portConstraint=eastwest;newEdgeStyle={&quot;curved&quot;:0,&quot;rounded&quot;:0};" vertex="1" parent="1">
          <mxGeometry x="3565" y="3148" width="10" height="300" as="geometry" />
        </mxCell>
        <mxCell id="Owx3ZIMa3h_KAy1xwRSf-210" value="1 : Configurar perfil()" style="html=1;verticalAlign=bottom;endArrow=block;curved=0;rounded=0;entryX=0;entryY=0;entryDx=0;entryDy=5;" edge="1" parent="1" source="Owx3ZIMa3h_KAy1xwRSf-212" target="Owx3ZIMa3h_KAy1xwRSf-209">
          <mxGeometry x="0.0042" relative="1" as="geometry">
            <mxPoint x="3355" y="3147" as="sourcePoint" />
            <mxPoint as="offset" />
          </mxGeometry>
        </mxCell>
        <mxCell id="Owx3ZIMa3h_KAy1xwRSf-211" value="" style="html=1;verticalAlign=bottom;endArrow=open;dashed=1;endSize=8;curved=0;rounded=0;exitX=0;exitY=1;exitDx=0;exitDy=-5;exitPerimeter=0;entryX=1;entryY=1;entryDx=0;entryDy=-5;entryPerimeter=0;" edge="1" parent="1" source="Owx3ZIMa3h_KAy1xwRSf-214">
          <mxGeometry x="-0.002" relative="1" as="geometry">
            <mxPoint x="3574" y="3278" as="targetPoint" />
            <mxPoint as="offset" />
          </mxGeometry>
        </mxCell>
        <mxCell id="Owx3ZIMa3h_KAy1xwRSf-212" value="" style="html=1;points=[[0,0,0,0,5],[0,1,0,0,-5],[1,0,0,0,5],[1,1,0,0,-5]];perimeter=orthogonalPerimeter;outlineConnect=0;targetShapes=umlLifeline;portConstraint=eastwest;newEdgeStyle={&quot;curved&quot;:0,&quot;rounded&quot;:0};" vertex="1" parent="1">
          <mxGeometry x="3317" y="3148" width="10" height="300" as="geometry" />
        </mxCell>
        <mxCell id="Owx3ZIMa3h_KAy1xwRSf-213" value="Usuario" style="rounded=0;whiteSpace=wrap;html=1;" vertex="1" parent="1">
          <mxGeometry x="3824" y="3022" width="120" height="60" as="geometry" />
        </mxCell>
        <mxCell id="Owx3ZIMa3h_KAy1xwRSf-214" value="" style="html=1;points=[[0,0,0,0,5],[0,1,0,0,-5],[1,0,0,0,5],[1,1,0,0,-5]];perimeter=orthogonalPerimeter;outlineConnect=0;targetShapes=umlLifeline;portConstraint=eastwest;newEdgeStyle={&quot;curved&quot;:0,&quot;rounded&quot;:0};" vertex="1" parent="1">
          <mxGeometry x="3879" y="3205" width="10" height="78" as="geometry" />
        </mxCell>
        <mxCell id="Owx3ZIMa3h_KAy1xwRSf-215" value="2.1 : Criar Usuario(cpf, nome, senha, nivel_fluencia)()" style="html=1;verticalAlign=bottom;endArrow=block;curved=0;rounded=0;entryX=0;entryY=0;entryDx=0;entryDy=5;entryPerimeter=0;" edge="1" parent="1" target="Owx3ZIMa3h_KAy1xwRSf-214">
          <mxGeometry width="80" relative="1" as="geometry">
            <mxPoint x="3574" y="3210" as="sourcePoint" />
            <mxPoint x="3733" y="3157" as="targetPoint" />
          </mxGeometry>
        </mxCell>
        <mxCell id="Owx3ZIMa3h_KAy1xwRSf-216" value="" style="endArrow=none;dashed=1;html=1;rounded=0;" edge="1" parent="1" source="Owx3ZIMa3h_KAy1xwRSf-212">
          <mxGeometry width="50" height="50" relative="1" as="geometry">
            <mxPoint x="3245" y="3189" as="sourcePoint" />
            <mxPoint x="3322" y="3104" as="targetPoint" />
          </mxGeometry>
        </mxCell>
        <mxCell id="Owx3ZIMa3h_KAy1xwRSf-217" value="" style="endArrow=none;dashed=1;html=1;rounded=0;entryX=0.5;entryY=1;entryDx=0;entryDy=0;" edge="1" parent="1" source="Owx3ZIMa3h_KAy1xwRSf-214" target="Owx3ZIMa3h_KAy1xwRSf-213">
          <mxGeometry width="50" height="50" relative="1" as="geometry">
            <mxPoint x="3883.81" y="3190" as="sourcePoint" />
            <mxPoint x="3883.81" y="3146" as="targetPoint" />
          </mxGeometry>
        </mxCell>
        <mxCell id="Owx3ZIMa3h_KAy1xwRSf-218" value="" style="endArrow=none;dashed=1;html=1;rounded=0;exitX=0.5;exitY=0;exitDx=0;exitDy=0;exitPerimeter=0;" edge="1" parent="1" source="Owx3ZIMa3h_KAy1xwRSf-209" target="Owx3ZIMa3h_KAy1xwRSf-222">
          <mxGeometry width="50" height="50" relative="1" as="geometry">
            <mxPoint x="3567" y="3135" as="sourcePoint" />
            <mxPoint x="3362" y="3118" as="targetPoint" />
          </mxGeometry>
        </mxCell>
        <mxCell id="Owx3ZIMa3h_KAy1xwRSf-219" value="Usuario" style="text;html=1;align=center;verticalAlign=middle;resizable=0;points=[];autosize=1;strokeColor=none;fillColor=none;" vertex="1" parent="1">
          <mxGeometry x="3677" y="3254" width="59" height="26" as="geometry" />
        </mxCell>
        <mxCell id="Owx3ZIMa3h_KAy1xwRSf-220" value="3 : Exibe dados do usuÃ¡rio()" style="html=1;verticalAlign=bottom;endArrow=block;curved=0;rounded=0;exitX=0;exitY=0;exitDx=0;exitDy=5;exitPerimeter=0;" edge="1" parent="1">
          <mxGeometry x="0.0038" width="80" relative="1" as="geometry">
            <mxPoint x="3564" y="3432" as="sourcePoint" />
            <mxPoint x="3327" y="3432" as="targetPoint" />
            <mxPoint as="offset" />
          </mxGeometry>
        </mxCell>
        <mxCell id="Owx3ZIMa3h_KAy1xwRSf-221" value="" style="shape=umlBoundary;whiteSpace=wrap;html=1;" vertex="1" parent="1">
          <mxGeometry x="3514" y="3006" width="100" height="80" as="geometry" />
        </mxCell>
        <mxCell id="Owx3ZIMa3h_KAy1xwRSf-222" value="Interface : Educando" style="text;html=1;align=center;verticalAlign=middle;resizable=0;points=[];autosize=1;strokeColor=none;fillColor=none;" vertex="1" parent="1">
          <mxGeometry x="3504.5" y="3082" width="129" height="26" as="geometry" />
        </mxCell>
        <mxCell id="Owx3ZIMa3h_KAy1xwRSf-223" value="4 : Definir preferÃªncias do aplicativo()" style="html=1;verticalAlign=bottom;endArrow=block;curved=0;rounded=0;entryX=0;entryY=0;entryDx=0;entryDy=5;" edge="1" parent="1">
          <mxGeometry x="0.0042" relative="1" as="geometry">
            <mxPoint x="3331" y="3529" as="sourcePoint" />
            <mxPoint x="3568" y="3529" as="targetPoint" />
            <mxPoint as="offset" />
          </mxGeometry>
        </mxCell>
        <mxCell id="Owx3ZIMa3h_KAy1xwRSf-224" value="" style="html=1;points=[[0,0,0,0,5],[0,1,0,0,-5],[1,0,0,0,5],[1,1,0,0,-5]];perimeter=orthogonalPerimeter;outlineConnect=0;targetShapes=umlLifeline;portConstraint=eastwest;newEdgeStyle={&quot;curved&quot;:0,&quot;rounded&quot;:0};" vertex="1" parent="1">
          <mxGeometry x="3317" y="3523" width="10" height="116" as="geometry" />
        </mxCell>
        <mxCell id="Owx3ZIMa3h_KAy1xwRSf-225" value="2.2 : Define nivel de fluÃªncia(nivel)" style="html=1;verticalAlign=bottom;endArrow=block;curved=0;rounded=0;" edge="1" parent="1" source="Owx3ZIMa3h_KAy1xwRSf-209" target="Owx3ZIMa3h_KAy1xwRSf-226">
          <mxGeometry width="80" relative="1" as="geometry">
            <mxPoint x="3610" y="3336" as="sourcePoint" />
            <mxPoint x="3690" y="3336" as="targetPoint" />
            <mxPoint as="offset" />
          </mxGeometry>
        </mxCell>
        <mxCell id="Owx3ZIMa3h_KAy1xwRSf-226" value="" style="html=1;points=[[0,0,0,0,5],[0,1,0,0,-5],[1,0,0,0,5],[1,1,0,0,-5]];perimeter=orthogonalPerimeter;outlineConnect=0;targetShapes=umlLifeline;portConstraint=eastwest;newEdgeStyle={&quot;curved&quot;:0,&quot;rounded&quot;:0};" vertex="1" parent="1">
          <mxGeometry x="3879" y="3315" width="10" height="80" as="geometry" />
        </mxCell>
        <mxCell id="Owx3ZIMa3h_KAy1xwRSf-227" value="" style="endArrow=none;dashed=1;html=1;rounded=0;" edge="1" parent="1" source="Owx3ZIMa3h_KAy1xwRSf-224">
          <mxGeometry width="50" height="50" relative="1" as="geometry">
            <mxPoint x="3322" y="3482" as="sourcePoint" />
            <mxPoint x="3322" y="3447" as="targetPoint" />
            <Array as="points">
              <mxPoint x="3322" y="3464" />
            </Array>
          </mxGeometry>
        </mxCell>
        <mxCell id="Owx3ZIMa3h_KAy1xwRSf-228" value="" style="html=1;verticalAlign=bottom;endArrow=open;dashed=1;endSize=8;curved=0;rounded=0;exitX=0;exitY=1;exitDx=0;exitDy=-5;exitPerimeter=0;" edge="1" parent="1" source="Owx3ZIMa3h_KAy1xwRSf-226" target="Owx3ZIMa3h_KAy1xwRSf-209">
          <mxGeometry x="-0.002" relative="1" as="geometry">
            <mxPoint x="4183" y="3465" as="targetPoint" />
            <mxPoint as="offset" />
            <mxPoint x="3839" y="3395" as="sourcePoint" />
          </mxGeometry>
        </mxCell>
        <mxCell id="Owx3ZIMa3h_KAy1xwRSf-229" value="" style="endArrow=none;html=1;rounded=0;" edge="1" parent="1" source="Owx3ZIMa3h_KAy1xwRSf-226" target="Owx3ZIMa3h_KAy1xwRSf-214">
          <mxGeometry width="50" height="50" relative="1" as="geometry">
            <mxPoint x="3929" y="3330" as="sourcePoint" />
            <mxPoint x="3979" y="3280" as="targetPoint" />
          </mxGeometry>
        </mxCell>
        <mxCell id="Owx3ZIMa3h_KAy1xwRSf-230" value="" style="html=1;points=[[0,0,0,0,5],[0,1,0,0,-5],[1,0,0,0,5],[1,1,0,0,-5]];perimeter=orthogonalPerimeter;outlineConnect=0;targetShapes=umlLifeline;portConstraint=eastwest;newEdgeStyle={&quot;curved&quot;:0,&quot;rounded&quot;:0};" vertex="1" parent="1">
          <mxGeometry x="3564" y="3523" width="10" height="112" as="geometry" />
        </mxCell>
        <mxCell id="Owx3ZIMa3h_KAy1xwRSf-231" value="" style="html=1;points=[[0,0,0,0,5],[0,1,0,0,-5],[1,0,0,0,5],[1,1,0,0,-5]];perimeter=orthogonalPerimeter;outlineConnect=0;targetShapes=umlLifeline;portConstraint=eastwest;newEdgeStyle={&quot;curved&quot;:0,&quot;rounded&quot;:0};" vertex="1" parent="1">
          <mxGeometry x="3847" y="3546" width="10" height="64" as="geometry" />
        </mxCell>
        <mxCell id="Owx3ZIMa3h_KAy1xwRSf-232" value="4.1 : Alterar configuraÃ§Ãµes do Aplicativo(Opces)" style="html=1;verticalAlign=bottom;endArrow=block;curved=0;rounded=0;" edge="1" parent="1" target="Owx3ZIMa3h_KAy1xwRSf-231">
          <mxGeometry x="0.0031" relative="1" as="geometry">
            <mxPoint x="3574" y="3551.63" as="sourcePoint" />
            <mxPoint x="3811" y="3551.63" as="targetPoint" />
            <mxPoint as="offset" />
          </mxGeometry>
        </mxCell>
        <mxCell id="Owx3ZIMa3h_KAy1xwRSf-233" value="&lt;span style=&quot;font-size: 8px; text-wrap: nowrap; background-color: rgb(255, 255, 255);&quot;&gt;(Fonte, modo de luz)&lt;/span&gt;" style="text;html=1;align=center;verticalAlign=middle;whiteSpace=wrap;rounded=0;fontSize=8;" vertex="1" parent="1">
          <mxGeometry x="3411" y="3523" width="60" height="30" as="geometry" />
        </mxCell>
        <mxCell id="Owx3ZIMa3h_KAy1xwRSf-234" value="" style="html=1;verticalAlign=bottom;endArrow=open;dashed=1;endSize=8;curved=0;rounded=0;exitX=0;exitY=1;exitDx=0;exitDy=-5;exitPerimeter=0;entryX=1;entryY=1;entryDx=0;entryDy=-5;entryPerimeter=0;" edge="1" parent="1">
          <mxGeometry x="-0.002" relative="1" as="geometry">
            <mxPoint x="3574" y="3601" as="targetPoint" />
            <mxPoint as="offset" />
            <mxPoint x="3846" y="3602" as="sourcePoint" />
          </mxGeometry>
        </mxCell>
        <mxCell id="Owx3ZIMa3h_KAy1xwRSf-235" value="&lt;b&gt;sd&lt;/b&gt; ConfiguraÃ§Ã£o de Perfil" style="shape=umlFrame;whiteSpace=wrap;html=1;pointerEvents=0;width=171;height=43;" vertex="1" parent="1">
          <mxGeometry x="3208" y="2948" width="751" height="745" as="geometry" />
        </mxCell>
        <mxCell id="Owx3ZIMa3h_KAy1xwRSf-236" value="" style="html=1;verticalAlign=bottom;endArrow=open;dashed=1;endSize=8;curved=0;rounded=0;exitX=0;exitY=1;exitDx=0;exitDy=-5;exitPerimeter=0;" edge="1" parent="1" source="Owx3ZIMa3h_KAy1xwRSf-230" target="Owx3ZIMa3h_KAy1xwRSf-224">
          <mxGeometry x="-0.002" relative="1" as="geometry">
            <mxPoint x="3277" y="3610" as="targetPoint" />
            <mxPoint as="offset" />
            <mxPoint x="3549" y="3611" as="sourcePoint" />
          </mxGeometry>
        </mxCell>
        <mxCell id="Owx3ZIMa3h_KAy1xwRSf-237" value="Usuario : Actor1" style="shape=umlActor;verticalLabelPosition=bottom;verticalAlign=top;html=1;" vertex="1" parent="1">
          <mxGeometry x="2339" y="2894" width="30" height="60" as="geometry" />
        </mxCell>
        <mxCell id="Owx3ZIMa3h_KAy1xwRSf-238" value="" style="html=1;points=[[0,0,0,0,5],[0,1,0,0,-5],[1,0,0,0,5],[1,1,0,0,-5]];perimeter=orthogonalPerimeter;outlineConnect=0;targetShapes=umlLifeline;portConstraint=eastwest;newEdgeStyle={&quot;curved&quot;:0,&quot;rounded&quot;:0};" vertex="1" parent="1">
          <mxGeometry x="2597" y="3020" width="10" height="300" as="geometry" />
        </mxCell>
        <mxCell id="Owx3ZIMa3h_KAy1xwRSf-239" value="1 : Configurar perfil()" style="html=1;verticalAlign=bottom;endArrow=block;curved=0;rounded=0;entryX=0;entryY=0;entryDx=0;entryDy=5;" edge="1" parent="1" source="Owx3ZIMa3h_KAy1xwRSf-241" target="Owx3ZIMa3h_KAy1xwRSf-238">
          <mxGeometry x="0.0042" relative="1" as="geometry">
            <mxPoint x="2387" y="3019" as="sourcePoint" />
            <mxPoint as="offset" />
          </mxGeometry>
        </mxCell>
        <mxCell id="Owx3ZIMa3h_KAy1xwRSf-240" value="" style="html=1;verticalAlign=bottom;endArrow=open;dashed=1;endSize=8;curved=0;rounded=0;exitX=0;exitY=1;exitDx=0;exitDy=-5;exitPerimeter=0;entryX=1;entryY=1;entryDx=0;entryDy=-5;entryPerimeter=0;" edge="1" parent="1" source="Owx3ZIMa3h_KAy1xwRSf-243">
          <mxGeometry x="-0.002" relative="1" as="geometry">
            <mxPoint x="2606" y="3150" as="targetPoint" />
            <mxPoint as="offset" />
          </mxGeometry>
        </mxCell>
        <mxCell id="Owx3ZIMa3h_KAy1xwRSf-241" value="" style="html=1;points=[[0,0,0,0,5],[0,1,0,0,-5],[1,0,0,0,5],[1,1,0,0,-5]];perimeter=orthogonalPerimeter;outlineConnect=0;targetShapes=umlLifeline;portConstraint=eastwest;newEdgeStyle={&quot;curved&quot;:0,&quot;rounded&quot;:0};" vertex="1" parent="1">
          <mxGeometry x="2349" y="3020" width="10" height="300" as="geometry" />
        </mxCell>
        <mxCell id="Owx3ZIMa3h_KAy1xwRSf-242" value="Usuario" style="rounded=0;whiteSpace=wrap;html=1;" vertex="1" parent="1">
          <mxGeometry x="2856" y="2894" width="120" height="60" as="geometry" />
        </mxCell>
        <mxCell id="Owx3ZIMa3h_KAy1xwRSf-243" value="" style="html=1;points=[[0,0,0,0,5],[0,1,0,0,-5],[1,0,0,0,5],[1,1,0,0,-5]];perimeter=orthogonalPerimeter;outlineConnect=0;targetShapes=umlLifeline;portConstraint=eastwest;newEdgeStyle={&quot;curved&quot;:0,&quot;rounded&quot;:0};" vertex="1" parent="1">
          <mxGeometry x="2911" y="3077" width="10" height="78" as="geometry" />
        </mxCell>
        <mxCell id="Owx3ZIMa3h_KAy1xwRSf-244" value="2.1 : Criar Usuario(cpf, nome, senha, nivel_fluencia)()" style="html=1;verticalAlign=bottom;endArrow=block;curved=0;rounded=0;entryX=0;entryY=0;entryDx=0;entryDy=5;entryPerimeter=0;" edge="1" parent="1" target="Owx3ZIMa3h_KAy1xwRSf-243">
          <mxGeometry width="80" relative="1" as="geometry">
            <mxPoint x="2606" y="3082" as="sourcePoint" />
            <mxPoint x="2765" y="3029" as="targetPoint" />
          </mxGeometry>
        </mxCell>
        <mxCell id="Owx3ZIMa3h_KAy1xwRSf-245" value="" style="endArrow=none;dashed=1;html=1;rounded=0;" edge="1" parent="1" source="Owx3ZIMa3h_KAy1xwRSf-241">
          <mxGeometry width="50" height="50" relative="1" as="geometry">
            <mxPoint x="2277" y="3061" as="sourcePoint" />
            <mxPoint x="2354" y="2976" as="targetPoint" />
          </mxGeometry>
        </mxCell>
        <mxCell id="Owx3ZIMa3h_KAy1xwRSf-246" value="" style="endArrow=none;dashed=1;html=1;rounded=0;entryX=0.5;entryY=1;entryDx=0;entryDy=0;" edge="1" parent="1" source="Owx3ZIMa3h_KAy1xwRSf-243" target="Owx3ZIMa3h_KAy1xwRSf-242">
          <mxGeometry width="50" height="50" relative="1" as="geometry">
            <mxPoint x="2915.81" y="3062" as="sourcePoint" />
            <mxPoint x="2915.81" y="3018" as="targetPoint" />
          </mxGeometry>
        </mxCell>
        <mxCell id="Owx3ZIMa3h_KAy1xwRSf-247" value="" style="endArrow=none;dashed=1;html=1;rounded=0;exitX=0.5;exitY=0;exitDx=0;exitDy=0;exitPerimeter=0;" edge="1" parent="1" source="Owx3ZIMa3h_KAy1xwRSf-238" target="Owx3ZIMa3h_KAy1xwRSf-251">
          <mxGeometry width="50" height="50" relative="1" as="geometry">
            <mxPoint x="2599" y="3007" as="sourcePoint" />
            <mxPoint x="2394" y="2990" as="targetPoint" />
          </mxGeometry>
        </mxCell>
        <mxCell id="Owx3ZIMa3h_KAy1xwRSf-248" value="Usuario" style="text;html=1;align=center;verticalAlign=middle;resizable=0;points=[];autosize=1;strokeColor=none;fillColor=none;" vertex="1" parent="1">
          <mxGeometry x="2709" y="3126" width="59" height="26" as="geometry" />
        </mxCell>
        <mxCell id="Owx3ZIMa3h_KAy1xwRSf-249" value="3 : Exibe dados do usuÃ¡rio()" style="html=1;verticalAlign=bottom;endArrow=block;curved=0;rounded=0;exitX=0;exitY=0;exitDx=0;exitDy=5;exitPerimeter=0;" edge="1" parent="1">
          <mxGeometry x="0.0038" width="80" relative="1" as="geometry">
            <mxPoint x="2596" y="3304" as="sourcePoint" />
            <mxPoint x="2359" y="3304" as="targetPoint" />
            <mxPoint as="offset" />
          </mxGeometry>
        </mxCell>
        <mxCell id="Owx3ZIMa3h_KAy1xwRSf-250" value="" style="shape=umlBoundary;whiteSpace=wrap;html=1;" vertex="1" parent="1">
          <mxGeometry x="2546" y="2878" width="100" height="80" as="geometry" />
        </mxCell>
        <mxCell id="Owx3ZIMa3h_KAy1xwRSf-251" value="Interface : Educando" style="text;html=1;align=center;verticalAlign=middle;resizable=0;points=[];autosize=1;strokeColor=none;fillColor=none;" vertex="1" parent="1">
          <mxGeometry x="2536.5" y="2954" width="129" height="26" as="geometry" />
        </mxCell>
        <mxCell id="Owx3ZIMa3h_KAy1xwRSf-252" value="4 : Definir preferÃªncias do aplicativo()" style="html=1;verticalAlign=bottom;endArrow=block;curved=0;rounded=0;entryX=0;entryY=0;entryDx=0;entryDy=5;" edge="1" parent="1">
          <mxGeometry x="0.0042" relative="1" as="geometry">
            <mxPoint x="2363" y="3401" as="sourcePoint" />
            <mxPoint x="2600" y="3401" as="targetPoint" />
            <mxPoint as="offset" />
          </mxGeometry>
        </mxCell>
        <mxCell id="Owx3ZIMa3h_KAy1xwRSf-253" value="" style="html=1;points=[[0,0,0,0,5],[0,1,0,0,-5],[1,0,0,0,5],[1,1,0,0,-5]];perimeter=orthogonalPerimeter;outlineConnect=0;targetShapes=umlLifeline;portConstraint=eastwest;newEdgeStyle={&quot;curved&quot;:0,&quot;rounded&quot;:0};" vertex="1" parent="1">
          <mxGeometry x="2349" y="3395" width="10" height="116" as="geometry" />
        </mxCell>
        <mxCell id="Owx3ZIMa3h_KAy1xwRSf-254" value="2.2 : Define nivel de fluÃªncia(nivel)" style="html=1;verticalAlign=bottom;endArrow=block;curved=0;rounded=0;" edge="1" parent="1" source="Owx3ZIMa3h_KAy1xwRSf-238" target="Owx3ZIMa3h_KAy1xwRSf-255">
          <mxGeometry width="80" relative="1" as="geometry">
            <mxPoint x="2642" y="3208" as="sourcePoint" />
            <mxPoint x="2722" y="3208" as="targetPoint" />
            <mxPoint as="offset" />
          </mxGeometry>
        </mxCell>
        <mxCell id="Owx3ZIMa3h_KAy1xwRSf-255" value="" style="html=1;points=[[0,0,0,0,5],[0,1,0,0,-5],[1,0,0,0,5],[1,1,0,0,-5]];perimeter=orthogonalPerimeter;outlineConnect=0;targetShapes=umlLifeline;portConstraint=eastwest;newEdgeStyle={&quot;curved&quot;:0,&quot;rounded&quot;:0};" vertex="1" parent="1">
          <mxGeometry x="2911" y="3187" width="10" height="80" as="geometry" />
        </mxCell>
        <mxCell id="Owx3ZIMa3h_KAy1xwRSf-256" value="" style="endArrow=none;dashed=1;html=1;rounded=0;" edge="1" parent="1" source="Owx3ZIMa3h_KAy1xwRSf-253">
          <mxGeometry width="50" height="50" relative="1" as="geometry">
            <mxPoint x="2354" y="3354" as="sourcePoint" />
            <mxPoint x="2354" y="3319" as="targetPoint" />
            <Array as="points">
              <mxPoint x="2354" y="3336" />
            </Array>
          </mxGeometry>
        </mxCell>
        <mxCell id="Owx3ZIMa3h_KAy1xwRSf-257" value="" style="html=1;verticalAlign=bottom;endArrow=open;dashed=1;endSize=8;curved=0;rounded=0;exitX=0;exitY=1;exitDx=0;exitDy=-5;exitPerimeter=0;" edge="1" parent="1" source="Owx3ZIMa3h_KAy1xwRSf-255" target="Owx3ZIMa3h_KAy1xwRSf-238">
          <mxGeometry x="-0.002" relative="1" as="geometry">
            <mxPoint x="3215" y="3337" as="targetPoint" />
            <mxPoint as="offset" />
            <mxPoint x="2871" y="3267" as="sourcePoint" />
          </mxGeometry>
        </mxCell>
        <mxCell id="Owx3ZIMa3h_KAy1xwRSf-258" value="" style="endArrow=none;html=1;rounded=0;" edge="1" parent="1" source="Owx3ZIMa3h_KAy1xwRSf-255" target="Owx3ZIMa3h_KAy1xwRSf-243">
          <mxGeometry width="50" height="50" relative="1" as="geometry">
            <mxPoint x="2961" y="3202" as="sourcePoint" />
            <mxPoint x="3011" y="3152" as="targetPoint" />
          </mxGeometry>
        </mxCell>
        <mxCell id="Owx3ZIMa3h_KAy1xwRSf-259" value="" style="html=1;points=[[0,0,0,0,5],[0,1,0,0,-5],[1,0,0,0,5],[1,1,0,0,-5]];perimeter=orthogonalPerimeter;outlineConnect=0;targetShapes=umlLifeline;portConstraint=eastwest;newEdgeStyle={&quot;curved&quot;:0,&quot;rounded&quot;:0};" vertex="1" parent="1">
          <mxGeometry x="2596" y="3395" width="10" height="112" as="geometry" />
        </mxCell>
        <mxCell id="Owx3ZIMa3h_KAy1xwRSf-260" value="" style="html=1;points=[[0,0,0,0,5],[0,1,0,0,-5],[1,0,0,0,5],[1,1,0,0,-5]];perimeter=orthogonalPerimeter;outlineConnect=0;targetShapes=umlLifeline;portConstraint=eastwest;newEdgeStyle={&quot;curved&quot;:0,&quot;rounded&quot;:0};" vertex="1" parent="1">
          <mxGeometry x="2879" y="3418" width="10" height="64" as="geometry" />
        </mxCell>
        <mxCell id="Owx3ZIMa3h_KAy1xwRSf-261" value="4.1 : Alterar configuraÃ§Ãµes do Aplicativo(Opces)" style="html=1;verticalAlign=bottom;endArrow=block;curved=0;rounded=0;" edge="1" parent="1" target="Owx3ZIMa3h_KAy1xwRSf-260">
          <mxGeometry x="0.0031" relative="1" as="geometry">
            <mxPoint x="2606" y="3423.63" as="sourcePoint" />
            <mxPoint x="2843" y="3423.63" as="targetPoint" />
            <mxPoint as="offset" />
          </mxGeometry>
        </mxCell>
        <mxCell id="Owx3ZIMa3h_KAy1xwRSf-262" value="&lt;span style=&quot;font-size: 8px; text-wrap: nowrap; background-color: rgb(255, 255, 255);&quot;&gt;(Fonte, modo de luz)&lt;/span&gt;" style="text;html=1;align=center;verticalAlign=middle;whiteSpace=wrap;rounded=0;fontSize=8;" vertex="1" parent="1">
          <mxGeometry x="2443" y="3395" width="60" height="30" as="geometry" />
        </mxCell>
        <mxCell id="Owx3ZIMa3h_KAy1xwRSf-263" value="" style="html=1;verticalAlign=bottom;endArrow=open;dashed=1;endSize=8;curved=0;rounded=0;exitX=0;exitY=1;exitDx=0;exitDy=-5;exitPerimeter=0;entryX=1;entryY=1;entryDx=0;entryDy=-5;entryPerimeter=0;" edge="1" parent="1">
          <mxGeometry x="-0.002" relative="1" as="geometry">
            <mxPoint x="2606" y="3473" as="targetPoint" />
            <mxPoint as="offset" />
            <mxPoint x="2878" y="3474" as="sourcePoint" />
          </mxGeometry>
        </mxCell>
        <mxCell id="Owx3ZIMa3h_KAy1xwRSf-264" value="&lt;b&gt;sd&lt;/b&gt; ConfiguraÃ§Ã£o de Perfil" style="shape=umlFrame;whiteSpace=wrap;html=1;pointerEvents=0;width=171;height=43;" vertex="1" parent="1">
          <mxGeometry x="2240" y="2820" width="751" height="745" as="geometry" />
        </mxCell>
        <mxCell id="Owx3ZIMa3h_KAy1xwRSf-265" value="" style="html=1;verticalAlign=bottom;endArrow=open;dashed=1;endSize=8;curved=0;rounded=0;exitX=0;exitY=1;exitDx=0;exitDy=-5;exitPerimeter=0;" edge="1" parent="1" source="Owx3ZIMa3h_KAy1xwRSf-259" target="Owx3ZIMa3h_KAy1xwRSf-253">
          <mxGeometry x="-0.002" relative="1" as="geometry">
            <mxPoint x="2309" y="3482" as="targetPoint" />
            <mxPoint as="offset" />
            <mxPoint x="2581" y="3483" as="sourcePoint" />
          </mxGeometry>
        </mxCell>
        <mxCell id="Owx3ZIMa3h_KAy1xwRSf-266" value="Usuario : Actor1" style="shape=umlActor;verticalLabelPosition=bottom;verticalAlign=top;html=1;" vertex="1" parent="1">
          <mxGeometry x="1436" y="2884" width="30" height="60" as="geometry" />
        </mxCell>
        <mxCell id="Owx3ZIMa3h_KAy1xwRSf-267" value="" style="html=1;points=[[0,0,0,0,5],[0,1,0,0,-5],[1,0,0,0,5],[1,1,0,0,-5]];perimeter=orthogonalPerimeter;outlineConnect=0;targetShapes=umlLifeline;portConstraint=eastwest;newEdgeStyle={&quot;curved&quot;:0,&quot;rounded&quot;:0};" vertex="1" parent="1">
          <mxGeometry x="1694" y="3010" width="10" height="300" as="geometry" />
        </mxCell>
        <mxCell id="Owx3ZIMa3h_KAy1xwRSf-268" value="1 : Configurar perfil()" style="html=1;verticalAlign=bottom;endArrow=block;curved=0;rounded=0;entryX=0;entryY=0;entryDx=0;entryDy=5;" edge="1" parent="1" source="Owx3ZIMa3h_KAy1xwRSf-270" target="Owx3ZIMa3h_KAy1xwRSf-267">
          <mxGeometry x="0.0042" relative="1" as="geometry">
            <mxPoint x="1484" y="3009" as="sourcePoint" />
            <mxPoint as="offset" />
          </mxGeometry>
        </mxCell>
        <mxCell id="Owx3ZIMa3h_KAy1xwRSf-269" value="" style="html=1;verticalAlign=bottom;endArrow=open;dashed=1;endSize=8;curved=0;rounded=0;exitX=0;exitY=1;exitDx=0;exitDy=-5;exitPerimeter=0;entryX=1;entryY=1;entryDx=0;entryDy=-5;entryPerimeter=0;" edge="1" parent="1" source="Owx3ZIMa3h_KAy1xwRSf-272">
          <mxGeometry x="-0.002" relative="1" as="geometry">
            <mxPoint x="1703" y="3140" as="targetPoint" />
            <mxPoint as="offset" />
          </mxGeometry>
        </mxCell>
        <mxCell id="Owx3ZIMa3h_KAy1xwRSf-270" value="" style="html=1;points=[[0,0,0,0,5],[0,1,0,0,-5],[1,0,0,0,5],[1,1,0,0,-5]];perimeter=orthogonalPerimeter;outlineConnect=0;targetShapes=umlLifeline;portConstraint=eastwest;newEdgeStyle={&quot;curved&quot;:0,&quot;rounded&quot;:0};" vertex="1" parent="1">
          <mxGeometry x="1446" y="3010" width="10" height="300" as="geometry" />
        </mxCell>
        <mxCell id="Owx3ZIMa3h_KAy1xwRSf-271" value="Usuario" style="rounded=0;whiteSpace=wrap;html=1;" vertex="1" parent="1">
          <mxGeometry x="1953" y="2884" width="120" height="60" as="geometry" />
        </mxCell>
        <mxCell id="Owx3ZIMa3h_KAy1xwRSf-272" value="" style="html=1;points=[[0,0,0,0,5],[0,1,0,0,-5],[1,0,0,0,5],[1,1,0,0,-5]];perimeter=orthogonalPerimeter;outlineConnect=0;targetShapes=umlLifeline;portConstraint=eastwest;newEdgeStyle={&quot;curved&quot;:0,&quot;rounded&quot;:0};" vertex="1" parent="1">
          <mxGeometry x="2008" y="3067" width="10" height="78" as="geometry" />
        </mxCell>
        <mxCell id="Owx3ZIMa3h_KAy1xwRSf-273" value="2.1 : Criar Usuario(cpf, nome, senha, nivel_fluencia)()" style="html=1;verticalAlign=bottom;endArrow=block;curved=0;rounded=0;entryX=0;entryY=0;entryDx=0;entryDy=5;entryPerimeter=0;" edge="1" parent="1" target="Owx3ZIMa3h_KAy1xwRSf-272">
          <mxGeometry width="80" relative="1" as="geometry">
            <mxPoint x="1703" y="3072" as="sourcePoint" />
            <mxPoint x="1862" y="3019" as="targetPoint" />
          </mxGeometry>
        </mxCell>
        <mxCell id="Owx3ZIMa3h_KAy1xwRSf-274" value="" style="endArrow=none;dashed=1;html=1;rounded=0;" edge="1" parent="1" source="Owx3ZIMa3h_KAy1xwRSf-270">
          <mxGeometry width="50" height="50" relative="1" as="geometry">
            <mxPoint x="1374" y="3051" as="sourcePoint" />
            <mxPoint x="1451" y="2966" as="targetPoint" />
          </mxGeometry>
        </mxCell>
        <mxCell id="Owx3ZIMa3h_KAy1xwRSf-275" value="" style="endArrow=none;dashed=1;html=1;rounded=0;entryX=0.5;entryY=1;entryDx=0;entryDy=0;" edge="1" parent="1" source="Owx3ZIMa3h_KAy1xwRSf-272" target="Owx3ZIMa3h_KAy1xwRSf-271">
          <mxGeometry width="50" height="50" relative="1" as="geometry">
            <mxPoint x="2012.81" y="3052" as="sourcePoint" />
            <mxPoint x="2012.81" y="3008" as="targetPoint" />
          </mxGeometry>
        </mxCell>
        <mxCell id="Owx3ZIMa3h_KAy1xwRSf-276" value="" style="endArrow=none;dashed=1;html=1;rounded=0;exitX=0.5;exitY=0;exitDx=0;exitDy=0;exitPerimeter=0;" edge="1" parent="1" source="Owx3ZIMa3h_KAy1xwRSf-267" target="Owx3ZIMa3h_KAy1xwRSf-280">
          <mxGeometry width="50" height="50" relative="1" as="geometry">
            <mxPoint x="1696" y="2997" as="sourcePoint" />
            <mxPoint x="1491" y="2980" as="targetPoint" />
          </mxGeometry>
        </mxCell>
        <mxCell id="Owx3ZIMa3h_KAy1xwRSf-277" value="Usuario" style="text;html=1;align=center;verticalAlign=middle;resizable=0;points=[];autosize=1;strokeColor=none;fillColor=none;" vertex="1" parent="1">
          <mxGeometry x="1806" y="3116" width="59" height="26" as="geometry" />
        </mxCell>
        <mxCell id="Owx3ZIMa3h_KAy1xwRSf-278" value="3 : Exibe dados do usuÃ¡rio()" style="html=1;verticalAlign=bottom;endArrow=block;curved=0;rounded=0;exitX=0;exitY=0;exitDx=0;exitDy=5;exitPerimeter=0;" edge="1" parent="1">
          <mxGeometry x="0.0038" width="80" relative="1" as="geometry">
            <mxPoint x="1693" y="3294" as="sourcePoint" />
            <mxPoint x="1456" y="3294" as="targetPoint" />
            <mxPoint as="offset" />
          </mxGeometry>
        </mxCell>
        <mxCell id="Owx3ZIMa3h_KAy1xwRSf-279" value="" style="shape=umlBoundary;whiteSpace=wrap;html=1;" vertex="1" parent="1">
          <mxGeometry x="1643" y="2868" width="100" height="80" as="geometry" />
        </mxCell>
        <mxCell id="Owx3ZIMa3h_KAy1xwRSf-280" value="Interface : Educando" style="text;html=1;align=center;verticalAlign=middle;resizable=0;points=[];autosize=1;strokeColor=none;fillColor=none;" vertex="1" parent="1">
          <mxGeometry x="1633.5" y="2944" width="129" height="26" as="geometry" />
        </mxCell>
        <mxCell id="Owx3ZIMa3h_KAy1xwRSf-281" value="4 : Definir preferÃªncias do aplicativo()" style="html=1;verticalAlign=bottom;endArrow=block;curved=0;rounded=0;entryX=0;entryY=0;entryDx=0;entryDy=5;" edge="1" parent="1">
          <mxGeometry x="0.0042" relative="1" as="geometry">
            <mxPoint x="1460" y="3391" as="sourcePoint" />
            <mxPoint x="1697" y="3391" as="targetPoint" />
            <mxPoint as="offset" />
          </mxGeometry>
        </mxCell>
        <mxCell id="Owx3ZIMa3h_KAy1xwRSf-282" value="" style="html=1;points=[[0,0,0,0,5],[0,1,0,0,-5],[1,0,0,0,5],[1,1,0,0,-5]];perimeter=orthogonalPerimeter;outlineConnect=0;targetShapes=umlLifeline;portConstraint=eastwest;newEdgeStyle={&quot;curved&quot;:0,&quot;rounded&quot;:0};" vertex="1" parent="1">
          <mxGeometry x="1446" y="3385" width="10" height="116" as="geometry" />
        </mxCell>
        <mxCell id="Owx3ZIMa3h_KAy1xwRSf-283" value="2.2 : Define nivel de fluÃªncia(nivel)" style="html=1;verticalAlign=bottom;endArrow=block;curved=0;rounded=0;" edge="1" parent="1" source="Owx3ZIMa3h_KAy1xwRSf-267" target="Owx3ZIMa3h_KAy1xwRSf-284">
          <mxGeometry width="80" relative="1" as="geometry">
            <mxPoint x="1739" y="3198" as="sourcePoint" />
            <mxPoint x="1819" y="3198" as="targetPoint" />
            <mxPoint as="offset" />
          </mxGeometry>
        </mxCell>
        <mxCell id="Owx3ZIMa3h_KAy1xwRSf-284" value="" style="html=1;points=[[0,0,0,0,5],[0,1,0,0,-5],[1,0,0,0,5],[1,1,0,0,-5]];perimeter=orthogonalPerimeter;outlineConnect=0;targetShapes=umlLifeline;portConstraint=eastwest;newEdgeStyle={&quot;curved&quot;:0,&quot;rounded&quot;:0};" vertex="1" parent="1">
          <mxGeometry x="2008" y="3177" width="10" height="80" as="geometry" />
        </mxCell>
        <mxCell id="Owx3ZIMa3h_KAy1xwRSf-285" value="" style="endArrow=none;dashed=1;html=1;rounded=0;" edge="1" parent="1" source="Owx3ZIMa3h_KAy1xwRSf-282">
          <mxGeometry width="50" height="50" relative="1" as="geometry">
            <mxPoint x="1451" y="3344" as="sourcePoint" />
            <mxPoint x="1451" y="3309" as="targetPoint" />
            <Array as="points">
              <mxPoint x="1451" y="3326" />
            </Array>
          </mxGeometry>
        </mxCell>
        <mxCell id="Owx3ZIMa3h_KAy1xwRSf-286" value="" style="html=1;verticalAlign=bottom;endArrow=open;dashed=1;endSize=8;curved=0;rounded=0;exitX=0;exitY=1;exitDx=0;exitDy=-5;exitPerimeter=0;" edge="1" parent="1" source="Owx3ZIMa3h_KAy1xwRSf-284" target="Owx3ZIMa3h_KAy1xwRSf-267">
          <mxGeometry x="-0.002" relative="1" as="geometry">
            <mxPoint x="2312" y="3327" as="targetPoint" />
            <mxPoint as="offset" />
            <mxPoint x="1968" y="3257" as="sourcePoint" />
          </mxGeometry>
        </mxCell>
        <mxCell id="Owx3ZIMa3h_KAy1xwRSf-287" value="" style="endArrow=none;html=1;rounded=0;" edge="1" parent="1" source="Owx3ZIMa3h_KAy1xwRSf-284" target="Owx3ZIMa3h_KAy1xwRSf-272">
          <mxGeometry width="50" height="50" relative="1" as="geometry">
            <mxPoint x="2058" y="3192" as="sourcePoint" />
            <mxPoint x="2108" y="3142" as="targetPoint" />
          </mxGeometry>
        </mxCell>
        <mxCell id="Owx3ZIMa3h_KAy1xwRSf-288" value="" style="html=1;points=[[0,0,0,0,5],[0,1,0,0,-5],[1,0,0,0,5],[1,1,0,0,-5]];perimeter=orthogonalPerimeter;outlineConnect=0;targetShapes=umlLifeline;portConstraint=eastwest;newEdgeStyle={&quot;curved&quot;:0,&quot;rounded&quot;:0};" vertex="1" parent="1">
          <mxGeometry x="1693" y="3385" width="10" height="112" as="geometry" />
        </mxCell>
        <mxCell id="Owx3ZIMa3h_KAy1xwRSf-289" value="" style="html=1;points=[[0,0,0,0,5],[0,1,0,0,-5],[1,0,0,0,5],[1,1,0,0,-5]];perimeter=orthogonalPerimeter;outlineConnect=0;targetShapes=umlLifeline;portConstraint=eastwest;newEdgeStyle={&quot;curved&quot;:0,&quot;rounded&quot;:0};" vertex="1" parent="1">
          <mxGeometry x="1976" y="3408" width="10" height="64" as="geometry" />
        </mxCell>
        <mxCell id="Owx3ZIMa3h_KAy1xwRSf-290" value="4.1 : Alterar configuraÃ§Ãµes do Aplicativo(Opces)" style="html=1;verticalAlign=bottom;endArrow=block;curved=0;rounded=0;" edge="1" parent="1" target="Owx3ZIMa3h_KAy1xwRSf-289">
          <mxGeometry x="0.0031" relative="1" as="geometry">
            <mxPoint x="1703" y="3413.63" as="sourcePoint" />
            <mxPoint x="1940" y="3413.63" as="targetPoint" />
            <mxPoint as="offset" />
          </mxGeometry>
        </mxCell>
        <mxCell id="Owx3ZIMa3h_KAy1xwRSf-291" value="&lt;span style=&quot;font-size: 8px; text-wrap: nowrap; background-color: rgb(255, 255, 255);&quot;&gt;(Fonte, modo de luz)&lt;/span&gt;" style="text;html=1;align=center;verticalAlign=middle;whiteSpace=wrap;rounded=0;fontSize=8;" vertex="1" parent="1">
          <mxGeometry x="1540" y="3385" width="60" height="30" as="geometry" />
        </mxCell>
        <mxCell id="Owx3ZIMa3h_KAy1xwRSf-292" value="" style="html=1;verticalAlign=bottom;endArrow=open;dashed=1;endSize=8;curved=0;rounded=0;exitX=0;exitY=1;exitDx=0;exitDy=-5;exitPerimeter=0;entryX=1;entryY=1;entryDx=0;entryDy=-5;entryPerimeter=0;" edge="1" parent="1">
          <mxGeometry x="-0.002" relative="1" as="geometry">
            <mxPoint x="1703" y="3463" as="targetPoint" />
            <mxPoint as="offset" />
            <mxPoint x="1975" y="3464" as="sourcePoint" />
          </mxGeometry>
        </mxCell>
        <mxCell id="Owx3ZIMa3h_KAy1xwRSf-293" value="&lt;b&gt;sd&lt;/b&gt; ConfiguraÃ§Ã£o de Perfil" style="shape=umlFrame;whiteSpace=wrap;html=1;pointerEvents=0;width=171;height=43;" vertex="1" parent="1">
          <mxGeometry x="1337" y="2810" width="751" height="745" as="geometry" />
        </mxCell>
        <mxCell id="Owx3ZIMa3h_KAy1xwRSf-294" value="" style="html=1;verticalAlign=bottom;endArrow=open;dashed=1;endSize=8;curved=0;rounded=0;exitX=0;exitY=1;exitDx=0;exitDy=-5;exitPerimeter=0;" edge="1" parent="1" source="Owx3ZIMa3h_KAy1xwRSf-288" target="Owx3ZIMa3h_KAy1xwRSf-282">
          <mxGeometry x="-0.002" relative="1" as="geometry">
            <mxPoint x="1406" y="3472" as="targetPoint" />
            <mxPoint as="offset" />
            <mxPoint x="1678" y="3473" as="sourcePoint" />
          </mxGeometry>
        </mxCell>
        <mxCell id="ZbvBIJitQKhqletO3n-S-72" value="" style="html=1;verticalAlign=bottom;endArrow=open;dashed=1;endSize=8;curved=0;rounded=0;exitX=0;exitY=1;exitDx=0;exitDy=-5;exitPerimeter=0;" edge="1" parent="1" target="Owx3ZIMa3h_KAy1xwRSf-9">
          <mxGeometry x="-0.002" relative="1" as="geometry">
            <mxPoint x="3598.5" y="511.9999999999999" as="targetPoint" />
            <mxPoint as="offset" />
            <mxPoint x="3814.5" y="512.5" as="sourcePoint" />
          </mxGeometry>
        </mxCell>
      </root>
    </mxGraphModel>
  </diagram>
</mxfile>
